<?xml version="1.0" encoding="utf-8"?>
<svg xmlns="http://www.w3.org/2000/svg" version="1.1" viewBox="0 0 800 1065">
	<title>The house diagram showing that the murderer was in the house.</title>
	<path d="m139.96 1043c-1.3596-37.562-1.8047-81.585-1.2707-125.67 0.0133-1.1 0.039-26.508 0.0571-56.462l0.0328-54.462-36.059 0.46189c-19.832 0.25404-36.058 0.0119-36.058-0.53811 2.84e-4 -0.55 0.75052-0.85 1.6672-0.66666 1.2398 0.24795 1.6667-2.9111 1.6667-12.333 0-8.8967-0.46082-12.579-1.5483-12.373-1.0957 0.20798-1.228-0.96125-0.45268-4 0.60259-2.3616 0.94968-6.6939 0.77133-9.6272-0.17836-2.9333 0.14373-6.6392 0.71576-8.2353 1.0296-2.8729 1.6414-431.95 0.63506-445.43-0.28736-3.85 0.0028-7 0.64485-7 0.64203 0 0.87012-1.65 0.50688-3.6667-1.1169-6.2007-1.4315-35.157-0.38899-35.801 0.54026-0.3339 1.5129 0.45971 2.1613 1.7636 0.67203 1.3512 0.98893 78.339 0.73696 179.04-0.64749 258.77-0.64318 354.92 0.01595 355.58 0.32227 0.32227 71.45 0.90948 158.06 1.3049 114.07 0.52079 157.47 0.31472 157.47-0.7476 0-0.95151 3.9803-1.4666 11.333-1.4666 7.6809 0 11.333 0.49632 11.333 1.5401 0 1.1583 23.193 1.3202 93.569 0.65298 51.463-0.4879 93.693-1.0309 93.845-1.2067s0.70741-60.62 1.235-134.32c0.52755-73.7 1.2549-134.49 1.6163-135.08 1.0832-1.7798 4.3147 3.4938 4.3383 7.0798 0.0175 2.6564-0.24662 2.9272-1.3006 1.3333-0.8829-1.3352-1.295 20.383-1.2398 65.333 0.0455 37.033 0.055 95.699 0.021 130.37-0.034 34.669 0.0283 63.469 0.13852 64 0.11018 0.53126-0.25912 2.0159-0.82067 3.2993-0.95797 2.1893-6.6112 2.3333-91.581 2.3333h-90.56l-0.0191 61c-0.0105 33.55-0.37996 86.65-0.82098 118-0.68677 48.819-1.0823 57-2.756 57-1.3569 0-1.728-0.9169-1.2142-3 0.40698-1.65 1.1508-54.75 1.6529-118l0.91295-115-73.175-0.13752c-40.246-0.0756-77.675-0.12116-83.175-0.10115-5.5 0.02-34.967 0.0819-65.483 0.13752l-55.483 0.10115 0.46661 30.333c0.25663 16.683 0.89445 46.833 1.4174 67 1.0355 39.936 1.3516 103.29 0.62357 125-0.35669 10.637-0.87391 13.667-2.3333 13.667-1.0313 0-1.8914-0.45-1.9113-1zm338.27-5.7047c0.52117-6.6086 0.48016-6.6925-2.862-5.8537-3.3907 0.8511-3.3907 0.8511-3.0503-17.629 0.33738-18.314 0.3673-18.476 3.3404-18.062 3 0.41715 3 0.41715 3-30.316v-30.734l39.275 0.33861c39.275 0.3386 39.275 0.3386 39.667-3.017 0.21554-1.8456 0.84188-3.2056 1.3919-3.0222s10.311 0.33333 21.692 0.33333c20.692 0 20.692 0 19.859 3.3201-0.8333 3.3201-0.8333 3.3201 47.973 3 43.056-0.28238 48.806-0.5636 48.808-2.3868 9.3e-4 -1.1367-0.56831-2.6367-1.265-3.3333-0.8-0.8 7.939-1.2667 23.72-1.2667 24.987 0 24.987 0 24.418 3.8756s-0.56882 3.8756 7.6132 3.0204c6.7304-0.70347 8.182-0.504 8.182 1.1244 0 1.4961-1.7096 1.9854-7 2.0037-58.083 0.20022-218.34-0.12603-241.33-0.4913l-30.333-0.48187-0.14232 18.141c-0.2698 34.392 0.31217 82.149 1.0376 85.141 0.56742 2.3409 0.15091 3-1.8958 3-2.3308 0-2.5641-0.7469-2.0942-6.7047zm0.42813-24.06c0-13.632-0.30726-16.032-2.0058-15.667-1.5994 0.34377-2.1411 3.6049-2.6739 16.098-0.64028 15.014-0.55672 15.667 2.0058 15.667 2.5286 0 2.6739-0.8745 2.6739-16.098zm246.78-77.236c13.236 0 15.891-0.3341 15.891-2 0-1.6944-3.2593-2-21.333-2-17.635 0-21.333 0.33139-21.333 1.9114 0 1.8827 5.6151 3.4537 9.109 2.5486 0.97664-0.25301 8.9266-0.46002 17.667-0.46002zm-127.35-2.3333c-0.30796-2.0983-2.2755-2.3333-19.53-2.3333-17.214 0-19.234 0.24002-19.637 2.3333-0.41181 2.1384 1.2198 2.3333 19.53 2.3333 18.27 0 19.95-0.19969 19.637-2.3333zm-133.7 75.667c-0.56355-2.1551-1.8187-2.6667-6.5418-2.6667-3.4472 0-5.8445-0.6165-5.8445-1.503 0-0.9981 2.2173-1.2899 6.6004-0.8687 5.8961 0.5665 6.6593 0.3356 7.1518-2.1637 0.30324-1.5389 0.63305 0.052 0.73292 3.5354 0.18704 6.524-0.86906 8.369-2.0988 3.6667zm-7.053-13.24-6-0.83908 14.244-5.2547-14.244-1.6418 7.682 0.15421c8.7995 0.17664 10.475 2.0202 3.6513 4.0168-4.6667 1.3655-4.6667 1.3655-0.33334 1.8359 2.3833 0.25872 4.3333 1.0324 4.3333 1.7193s-0.75 1.1587-1.6667 1.0486-4.3667-0.57785-7.6667-1.0393zm-3.1111-11.649c-1.6482-1.6482-0.90503-5.4863 1.2202-6.3018 5.9946-2.3003 12.428 0.79646 10.749 5.1737-0.78799 2.0535-10.16 2.9368-11.969 1.1281zm11.111-2.3018c0-3.0804-5.6746-4.4858-9.1708-2.2713-2.9325 1.8574-0.41134 4.1286 4.5828 4.1286 3.0327 0 4.588-0.62962 4.588-1.8573zm58.059-3.8093c-0.28795-0.91667-1.2156-3.9167-2.0616-6.6667-1.752-5.6956-3.9979-6.6319-3.9979-1.6667 0 1.8333-0.6 3.3333-1.3333 3.3333-0.74236 0-1.3333-3.5851-1.3333-8.0886 0-8.0373 0.0233-8.0859 3.6667-7.6667 3.3688 0.38762 3.6784 0.90934 3.8105 6.4219 0.0791 3.3 1.0985 8.25 2.2653 11s1.5333 5 0.81433 5-1.5427-0.75-1.8307-1.6667zm-2.0594-17c0-1.6711-0.88889-2.6667-2.381-2.6667s-2.381 0.99556-2.381 2.6667 0.88889 2.6667 2.381 2.6667 2.381-0.99556 2.381-2.6667zm-74.667 14.264c0-0.93324 1.05-1.7789 2.3333-1.8792 4.4462-0.34761 9.8809-3.0757 9.3429-4.6898-0.29731-0.89193-1.9961-2.0284-3.775-2.5256-2.0971-0.58603-0.3041-0.9506 5.0989-1.0368 7.9228-0.12636 8.3333 0.0232 8.3333 3.0372 0 4.2342-3.1258 6.785-6.2037 5.0625-1.6747-0.93722-4.1675-0.59238-8.7365 1.2086-4.7439 1.8699-6.3932 2.0822-6.3932 0.82314zm18.431-6.7081c0.29067-1.4988-0.46939-2.2228-2.3333-2.2228-3.0466 0-3.1349 0.14984-1.9335 3.2806 1.0153 2.6458 3.6765 1.9861 4.2668-1.0578zm32.842 0.0746c0.18948-3.8303 0.43048-8.4341 0.53555-10.231 0.24696-4.223 2.0379-2.2836 4.2478 4.6 1.7122 5.3333 1.7122 5.3333 3.0225 1.3333 0.72064-2.2 2.1226-5.1835 3.1155-6.63 1.5999-2.3308 1.8053-1.6104 1.8053 6.3333 0 5.7638-0.53677 8.9633-1.5038 8.9633-1.0222 0-1.2138-1.8145-0.59842-5.6667 1.0654-6.6685-0.98717-5.5233-2.9872 1.6667l-1.2981 4.6667-0.97845-4.3611c-1.3467-6.0024-3.8453-7.2872-3.0023-1.5439 0.38942 2.6533-0.0269 5.1573-1.0231 6.1535-1.3507 1.3507-1.6122 0.3157-1.3352-5.2844zm47.143 4.7917c0.9625-0.38516 2.1125-0.33779 2.5556 0.10527 0.44305 0.44305-0.34445 0.75818-1.75 0.70029-1.5533-0.064-1.8692-0.37992-0.80556-0.80556zm90.457-1.5275c-3.49-3.8564-2.7392-6.5269 0.87929-3.1274 3.7201 3.4948 4.9141 3.6445 4.9141 0.61584 0-1.2558-1.601-3.5598-3.5578-5.1201-2.434-1.9408-3.2787-3.5642-2.6742-5.1394 1.2613-3.2868 8.0429-2.3451 8.7089 1.2094 0.47877 2.555 0.3911 2.569-2.0936 0.33334-3.1272-2.8137-4.3833-2.9532-4.3833-0.48668 0 1.0157 1.5 2.8295 3.3333 4.0307 3.5831 2.3478 4.3141 5.9419 1.7333 8.5226-2.2453 2.2453-4.2962 1.9946-6.86-0.83832zm10.793 1.5553c0.91667-0.36988 2.4167-0.36988 3.3333 0 0.91666 0.36988 0.16666 0.67252-1.6667 0.67252s-2.5833-0.30264-1.6667-0.67252zm8.8448-2.7836c0.33145-2.0167 0.65198-6.2521 0.71228-9.412 0.0603-3.1599 0.62917-5.4243 1.2642-5.0318s0.86504 2.2278 0.51123 4.0787c-0.55876 2.923-0.17231 3.3652 2.9409 3.3652 2.9 0 3.5378-0.57263 3.3412-3-0.59296-7.3203 0.54891-4.7988 1.3586 3 0.49486 4.7667 0.40337 9.2367-0.20332 9.9333-0.61595 0.7073-1.1031-0.6175-1.1031-3 0-3.3778-0.55556-4.2667-2.6667-4.2667-2.0741 0-2.6667 0.88889-2.6667 4 0 2.7063-0.6616 4-2.0456 4-1.4888 0-1.8816-0.99809-1.443-3.6667zm16.231 0.70332c-3.0348-4.3328-2.6938-11.279 0.64142-13.064 5.4252-2.9035 9.2138 0.75692 9.2648 8.9514 0.0162 2.6015-4.3276 7.0756-6.8695 7.0756-0.52858 0-1.8951-1.3335-3.0367-2.9633zm6.5911-6.3882c0-3.7595-0.50993-4.6484-2.6667-4.6484-1.7753 0-2.8133 1.0352-3.1054 3.097-0.63519 4.4833 0.75087 7.1668 3.4347 6.65 1.6946-0.32634 2.3374-1.7285 2.3374-5.0985zm8.9453 7.6849c-1.6018-1.9329-2.5614-15.162-1.1986-16.524 0.50601-0.506 0.92001 2.48 0.92001 6.6356 0 6.6667 0.31372 7.5556 2.6667 7.5556 2.3469 0 2.6667-0.88889 2.6667-7.412 0-4.6018 0.50552-7.0996 1.3333-6.588 0.73334 0.45323 1.3333 4.0675 1.3333 8.0318 0 5.7615-0.51749 7.4847-2.579 8.588-3.2575 1.7433-3.47 1.7315-5.1424-0.28642zm-159.45-2.5104c-2.6256-3.7486-1.6526-4.9843 1.6041-2.037 2.8998 2.6243 4.2365 2.8128 4.2365 0.59747 0-0.88912-1.6324-2.9182-3.6274-4.509-3.1293-2.4952-3.3815-3.1887-1.8367-5.0501 2.3119-2.7857 3.1771-2.7199 6.9831 0.53062 3.1477 2.6883 3.1477 2.6883-0.52459 1.1167-5.0928-2.1794-6.142-0.42486-1.792 2.9968 2.3165 1.8222 3.464 3.8587 3.2036 5.6853-0.57478 4.0302-5.6063 4.4385-8.2465 0.66912zm11.409 0.77326c0.60303-2.8962 2.9694-3.0734 3.5106-0.2629 0.28107 1.4595-0.3729 2.3333-1.7462 2.3333-1.281 0-2.016-0.86245-1.7644-2.0704zm10.431-5.9296c0-8 0-8 4.4-8 5.4887 0 7.6121 2.0416 7.5576 7.2667-0.0591 5.6652-2.7893 8.7333-7.7712 8.7333-4.1864 0-4.1864 0-4.1864-8zm7.7333 3.7333c3.3016-3.3016 1.0265-10.4-3.3333-10.4-1.1654 0-1.7333 1.9658-1.7333 6 0 6.1533 1.7733 7.6933 5.0667 4.4zm8.6832-3.7333c1.4426-4.4 3.0295-8 3.5264-8 0.80127 0 5.3904 12.87 5.3904 15.117 0 0.48554-0.6 0.88281-1.3333 0.88281-0.73333 0-1.3333-0.9-1.3333-2 0-1.1111-1.1852-2-2.6667-2s-2.6667 0.88889-2.6667 2c0 1.1-0.79643 2-1.7698 2-1.3761 0-1.1863-1.7797 0.8531-8zm4.9168-1.412c0-1.51-0.6-2.3745-1.3333-1.9213-0.73333 0.45322-1.3333 1.6886-1.3333 2.7454s0.6 1.9213 1.3333 1.9213c0.73334 0 1.3333-1.2354 1.3333-2.7454zm8 1.412c0-4.4 0.48044-8 1.0676-8 0.58721 0 2.5206 2.85 4.2965 6.3333l3.2289 6.3333 0.82734-6.6667c0.82734-6.6667 0.82734-6.6667 1.0368 1.6667 0.11799 4.694-0.36099 8.3333-1.0968 8.3333-0.71843 0-2.5306-2.4-4.0271-5.3333-1.4965-2.9333-2.8745-5.3333-3.0623-5.3333s-0.1126 2.4 0.16714 5.3333c0.3158 3.3115-0.0499 5.3333-0.96476 5.3333-0.91191 0-1.4734-3.0486-1.4734-8zm17.333 1.8137c0-4.3281-0.70088-6.7184-2.3333-7.9576-2.0455-1.5527-1.5932-1.7574 3.6667-1.659 3.3 0.0617 4.95 0.38666 3.6667 0.72203-1.8607 0.48624-2.3333 2.0755-2.3333 7.8453 0 3.9796-0.6 7.2356-1.3333 7.2356-0.73333 0-1.3333-2.7839-1.3333-6.1863zm9.6 4.5863c-1.965-1.965-2.0835-8.3385-0.21975-11.821 2.918-5.4523 7.9531-1.4004 7.9531 6.4 0 3.9181-2.0624 7.021-4.6667 7.021-0.80667 0-2.1867-0.72-3.0667-1.6zm5.919-3.0696c1.1483-2.9923-0.6409-8.6637-2.7332-8.6637-2.1273 0-3.821 5.4882-2.642 8.5607 1.025 2.671 4.3651 2.735 5.3751 0.10297zm4.481-3.3304c0-9.617 1.8088-10.278 5.4707-2 1.4598 3.3 3.0076 6 3.4396 6s0.41901-2.6739-0.0289-5.942c-0.46112-3.3642-0.25052-6.2905 0.48543-6.7454 0.79381-0.49061 1.2999 2.6013 1.2999 7.942 0 10.737-2.5843 11.826-5.7235 2.412l-2.112-6.3333-0.0823 6.3333c-0.0452 3.4833-0.68227 6.3333-1.4156 6.3333-0.74074 0-1.3333-3.5556-1.3333-8zm83 7.117c-0.91667-0.36988-1.6476-1.9725-1.6243-3.5614 0.0394-2.6854 0.16714-2.7246 1.8136-0.55555 1.8605 2.4508 6.1439 3.2155 6.1439 1.0968 0-0.68011-1.5-2.4165-3.3333-3.8586s-3.3333-3.8856-3.3333-5.4301c0-2.2082 0.82412-2.8081 3.8573-2.8081 2.2874 0 4.1868 0.85838 4.6667 2.109 1.3429 3.4995 0.93913 3.7551-1.8888 1.1958-1.9465-1.7615-3.1029-2.0371-4.1508-0.98922-1.0479 1.0479-0.23417 2.5412 2.9208 5.3602 6.3567 5.6797 2.9499 10.678-5.0718 7.4412zm13.482-7.4503c0.29617-8.3333 0.29617-8.3333 6.5739-8.7397 3.9671-0.25682 6.2777 0.14021 6.2777 1.0787 0 0.8168-0.6 1.1143-1.3333 0.66104-0.73333-0.45323-1.3333-0.29255-1.3333 0.35705s-1.8516 0.90933-4.1148 0.57718c-3.7011-0.54321-4.0697-0.28542-3.6667 2.5643 0.30495 2.1561 1.1935 3.043 2.7814 2.7764 3.239-0.54385 2.9432 1.9213-0.33334 2.7781-4.1806 1.0933-3.1207 3.6137 1.5197 3.6137 2.4233 0 4.9323-0.98264 5.9576-2.3333 1.6102-2.1212 1.7751-2 1.8136 1.3333 0.0411 3.5551-0.17797 3.6667-7.1981 3.6667h-7.2405zm-247.3-1.9213c-0.0812-0.59328-0.0382-2.4287 0.0954-4.0787 0.29132-3.5965-3.4471-4.1678-4.3621-0.66667-0.58073 2.2222-0.61713 2.2222-0.76443 0-0.11066-1.6693-1.293-2.3333-4.1547-2.3333-2.2 0-4-0.67851-4-1.5078 0-1.0004 1.6827-1.2297 5-0.68134 2.75 0.45454 6.35 0.83305 8 0.84112 2.4277 0.0119 3 0.76268 3 3.936 0 3.444-2.4275 7.3176-2.8142 4.4907zm165.41-2.412c-0.13647-0.73333-0.17708-1.7833-0.0902-2.3333 0.0868-0.55-0.4421-1-1.1754-1-0.73333 0-1.3333-1.2-1.3333-2.6667 0-3.1552 3.7226-3.6077 4.8794-0.59304 0.43764 1.1405 0.15942 3.3905-0.61828 5-0.77769 1.6095-1.5256 2.3264-1.6621 1.593zm-362.6-20.491v-9.158l10.333-0.68484c5.6833-0.37666 10.783-0.42015 11.333-0.0967 0.55 0.3235 1 4.1339 1 8.4676 0 6.6533-0.3298 7.7529-2.1193 7.0662-1.5965-0.61263-2.0052-2.2468-1.657-6.6248 0.44717-5.6226 0.33721-5.8116-3.3807-5.8116-3.5811 0-3.787 0.27984-3.0215 4.1071 0.59072 2.9536 0.35668 3.9484-0.83334 3.5418-0.91012-0.31096-1.5899-2.1592-1.5107-4.1071 0.11873-2.9195-0.43655-3.5418-3.1603-3.5418-3.214 0-3.2885 0.21863-2.7256 8 0.50995 7.0501 0.2915 8-1.8398 8-2.1009 0-2.4184-1.2022-2.4184-9.158zm0.0506-19.175c0.0614-2.0232 12.643-10.922 17.283-12.224 2.9989-0.8415 2.8652-0.53042-1.3333 3.1008-2.5667 2.2199-6.4667 4.9971-8.6667 6.1717-3.91 2.0875-3.7825 2.1183 5.6667 1.3676 8.0633-0.64053 9.6667-0.43462 9.6667 1.2414 0 1.6326-2.1248 2.0093-11.333 2.0093-8.2048 0-11.319-0.46009-11.283-1.6667zm-0.0506-14.27c0-0.86343 4.3255-1.3964 11.333-1.3964 6.2333 0 11.333 0.45 11.332 1-8.4e-4 0.55-5.1008 1.1784-11.333 1.3964-7.2591 0.25392-11.332-0.10548-11.332-1zm0-7.9732c0-0.68392 1.05-1.5248 2.3333-1.8685 11.247-3.0129 15-4.2558 15-4.968 0-1.0747-9.4838-3.92-13.066-3.92-1.9838 0-2.9125 1.0281-3.3122 3.6667-0.38401 2.5349-0.61712 1.8933-0.75523-2.0787-0.10988-3.16 0.25022-5.4769 0.80022-5.1488s5.6811 1.6307 11.402 2.8946c13.31 2.9402 13.217 5.1056-0.40237 9.4447-11.281 3.5939-12 3.7125-12 1.9781zm6.6667-6.7147c0-1.7341 0.6501-2.3754 1.9158-1.8897 1.0537 0.40434 1.5895 1.5855 1.1907 2.6248-1.0673 2.7814-3.1065 2.2988-3.1065-0.73516zm13.761-12.714c-0.1312-2.5634 0.3188-4.6607 1-4.6607s1.2386 2.1 1.2386 4.6667c0 6.0733-1.9277 6.0681-2.2386-6e-3zm-19.575-0.25249c-0.46895-0.46896-0.85264-3.707-0.85264-7.1956v-6.3429l10.602-0.43487c8.6272-0.35387 10.7-0.0564 11.13 1.5972 0.44421 1.7097-0.92059 1.9502-8.6017 1.5162-9.1297-0.51588-9.1297-0.51588-9.1297 4.8892 0 5.1944-1.3543 7.7637-3.1474 5.9707zm94.883-48.945c-6.1523-4.4987-3.2229-15.463 4.1314-15.463 2.0933 0 4.565 0.9145 5.4926 2.0322 2.5079 3.0218 0.67562 3.8228-3.0942 1.3527-3.0347-1.9884-3.471-1.9893-5.449-0.0113-2.2862 2.2862-2.6527 4.4321-1.3409 7.8507 1.141 2.9734 6.086 2.7748 5.5825-0.22429-0.26156-1.5577 0.6054-2.475 2.6082-2.7594 2.6304-0.37357 3 0.16031 3 4.3333 0 4.5035-1.853 6.5337-2.9526 3.2349-0.36576-1.0973-1.243-1.1313-3.1301-0.12134-1.8964 1.0149-3.2378 0.95282-4.8479-0.22449zm13.617 1.537c0.0108-0.18333 1.1417-3.9333 2.5131-8.3333 3.2344-10.377 5.7279-10.907 8.0598-1.7136 0.98304 3.8758 2.0661 7.7969 2.4067 8.7136s0.0507 1.6667-0.64441 1.6667c-0.6951 0-2.004-3.3078-2.9088-7.3506s-2.2002-7.0074-2.8788-6.588c-1.661 1.0266-1.5788 5.9385 0.0995 5.9385 0.73333 0 1.3333 0.66419 1.3333 1.476s-0.84498 1.1517-1.8777 0.75543c-1.2002-0.46055-2.1716 0.45021-2.6921 2.524-0.44788 1.7845-1.4029 3.2446-2.1223 3.2446-0.71936 0-1.2991-0.15-1.2883-0.33334zm17.314-7.5739c0-7.14-0.29109-7.9633-3-8.4851-1.65-0.3178 0-0.6215 3.6667-0.67488 5.3868-0.0784 6.0721 0.14132 3.5698 1.1446-2.8881 1.158-3.035 1.7365-2.1797 8.5822 0.63204 5.0586 0.4549 7.3405-0.56983 7.3405-0.92657 0-1.487-2.98-1.487-7.9073zm10.667-0.7594c0-8.6667 0-8.6667 4.6667-8.6667 2.5679 0 4.6667 0.67461 4.6667 1.5 0 0.95556-1.4519 1.2096-4 0.7-3.0844-0.61688-4-0.32127-4 1.2915 0 1.1503 1.2 2.4053 2.6667 2.7888 1.4667 0.38354 2.6667 1.2678 2.6667 1.965s-1.2 0.88681-2.6667 0.42131c-2.2433-0.712-2.6667-0.2396-2.6667 2.9758 0 3.583 0.29193 3.788 4.6667 3.2773 2.8564-0.33347 4.6667 0.029 4.6667 0.9344 0 0.83685-2.316 1.4792-5.3333 1.4792-5.3333 0-5.3333 0-5.3333-8.6667zm-6.6667-25.255c0-1.1433 0.6-2.0787 1.3333-2.0787s1.3333 0.56459 1.3333 1.2546c0 0.69006-0.6 1.6255-1.3333 2.0787-0.73333 0.45323-1.3333-0.11136-1.3333-1.2546zm1.3333-5.2488c0-0.27688 0.9-1.2503 2-2.1633 1.638-1.3594 2-1.2683 2 0.5034 0 1.1898-0.9 2.1633-2 2.1633s-2-0.22653-2-0.5034zm6-3.4966c0.45322-0.73333 1.9886-1.3333 3.412-1.3333 1.4234 0 2.588 0.6 2.588 1.3333 0 0.73334-1.5354 1.3333-3.412 1.3333-1.9352 0-3.0553-0.57713-2.588-1.3333zm7.3333-1.3333c0-0.73333 0.9-1.3333 2-1.3333s2 0.6 2 1.3333-0.9 1.3333-2 1.3333-2-0.6-2-1.3333zm6.186-1.6343c0.41248-0.66742 2.648-1.05 4.9678-0.8501 2.3198 0.19987 4.9992-0.11946 5.954-0.70962s2.1289-0.68031 2.6088-0.20034c1.5969 1.5969-2.7341 3.1481-8.544 3.0603-3.1552-0.0477-5.3993-0.63279-4.9868-1.3002zm15.814-1.0324c-0.45322-0.73333 0.14678-1.3333 1.3333-1.3333 1.1866 0 1.7866 0.6 1.3333 1.3333-0.45322 0.73334-1.0532 1.3333-1.3333 1.3333s-0.88011-0.6-1.3333-1.3333zm5.3333-1.3333c0.45322-0.73333 1.0886-1.3333 1.412-1.3333s0.58798 0.6 0.58798 1.3333-0.63541 1.3333-1.412 1.3333c-0.77661 0-1.0412-0.6-0.58797-1.3333zm4 0c-0.45323-0.73333 0.14677-1.3333 1.3333-1.3333s1.7866 0.6 1.3333 1.3333c-0.45322 0.73333-1.0532 1.3333-1.3333 1.3333s-0.88011-0.6-1.3333-1.3333zm4.6667-1.3333c0-0.73334 0.6-1.3333 1.3333-1.3333 0.73333 0 1.3333 0.6 1.3333 1.3333 0 0.73333-0.6 1.3333-1.3333 1.3333-0.73334 0-1.3333-0.6-1.3333-1.3333zm4.6801-1.3551c0.46062-0.74529 1.396-1.0099 2.0787-0.58797 1.8494 1.143 1.5046 1.9431-0.83749 1.9431-1.1433 0-1.7018-0.60979-1.2412-1.3551zm4.6532 0.0217c0-0.73333 0.6-1.3333 1.3333-1.3333s1.3333 0.6 1.3333 1.3333c0 0.73334-0.6 1.3333-1.3333 1.3333s-1.3333-0.6-1.3333-1.3333zm4-1.3333c0-0.73333 0.6-1.3333 1.3333-1.3333s1.3333 0.6 1.3333 1.3333-0.6 1.3333-1.3333 1.3333-1.3333-0.6-1.3333-1.3333zm4.6768-1.317c-0.3621-0.58588 0.9083-1.4584 2.8231-1.939 4.5889-1.1518 5.112-0.42983 1.0706 1.4774-1.7794 0.83975-3.5316 1.0475-3.8936 0.46159zm8.6566-4.095c0-0.77661 0.6-1.0412 1.3333-0.58798 0.73334 0.45323 1.3333 1.0886 1.3333 1.412 0 0.32339-0.6 0.58798-1.3333 0.58798-0.73333 0-1.3333-0.63541-1.3333-1.412zm4.6667-1.2546c-0.45323-0.73333 0.14677-1.3333 1.3333-1.3333s1.7866 0.6 1.3333 1.3333c-0.45322 0.73334-1.0532 1.3333-1.3333 1.3333s-0.88011-0.6-1.3333-1.3333zm4.0569-2.5745c-0.42191-0.68266-0.15732-1.6181 0.58797-2.0787 0.7453-0.46062 1.3551 0.0979 1.3551 1.2412 0 2.342-0.80008 2.6869-1.9431 0.83749zm4.6097-2.7588c0-0.73333 0.6-1.3333 1.3333-1.3333 0.73333 0 1.3333 0.6 1.3333 1.3333s-0.6 1.3333-1.3333 1.3333c-0.73334 0-1.3333-0.6-1.3333-1.3333zm4-2.6667c0-0.73333 0.9-1.3333 2-1.3333s2 0.6 2 1.3333c0 0.73334-0.9 1.3333-2 1.3333s-2-0.6-2-1.3333zm3.3333-4c0.45322-0.73334 1.3886-1.3333 2.0787-1.3333 0.69005 0 1.2546 0.6 1.2546 1.3333 0 0.73333-0.93541 1.3333-2.0787 1.3333s-1.7079-0.6-1.2546-1.3333zm4.3226-2.3333c-0.27579-0.55 0.97003-2.5 2.7685-4.3333s2.8891-2.4333 2.4236-1.3333c-0.46547 1.1-1.2167 3.05-1.6693 4.3333-0.84991 2.4095-2.6428 3.0881-3.5227 1.3333zm-434.11-7c0-1.8333 0.30263-2.5833 0.67252-1.6667 0.36988 0.91666 0.36988 2.4167 0 3.3333s-0.67252 0.16667-0.67252-1.6667zm441.12-1.3333c0-0.73333 0.63541-1.3333 1.412-1.3333 0.77662 0 1.0412 0.6 0.58798 1.3333s-1.0886 1.3333-1.412 1.3333c-0.32339 0-0.58798-0.6-0.58798-1.3333zm37.333-2.5605c0-0.67497-3.9-1.6449-8.6667-2.1553-9.1613-0.98109-9.7459-1.6052-7.3663-7.864 2.3741-6.2442 12.004-3.2199 10.315 3.2394-0.57644 2.2043-0.0461 2.6738 3.0204 2.6738 2.5983 0 3.9299 0.8039 4.417 2.6667 0.38354 1.4667 0.15352 2.6667-0.51116 2.6667s-1.2085-0.55225-1.2085-1.2272zm-8-7.2968c0-4.0888-3.5188-5.5331-5.313-2.1806-1.8134 3.3884-1.7355 3.7427 0.97966 4.4522 4.1262 1.0783 4.3333 0.96971 4.3333-2.2716zm-470.56 5.0796c0.06398-1.5533 0.37992-1.8692 0.80556-0.80555 0.38516 0.9625 0.33779 2.1125-0.10526 2.5556-0.44306 0.44306-0.75819-0.34444-0.70029-1.75zm354.47-2.8889c-2.6043-7.989-6.1178-9.3379-6.9457-2.6667-0.29691 2.3925-0.63333 0.60101-0.75114-4-0.21339-8.3333-0.21339-8.3333 4.4951-8.3333 5.3325 0 7.3273 2.8348 4.82 6.8496-1.2201 1.9537-1.1209 3.5449 0.45624 7.3195 2.3673 5.6657 2.3895 5.8308 0.78532 5.8308-0.67646 0-1.9634-2.25-2.8599-5zm-0.57685-11c0-1.1-1.35-2.1917-3-2.4261-2.3089-0.32792-3 0.23094-3 2.4261 0 2.1951 0.69107 2.754 3 2.4261 1.65-0.23434 3-1.3261 3-2.4261zm88.667 14.667c0-0.73333 0.93541-1.3333 2.0787-1.3333s1.7079 0.6 1.2546 1.3333c-0.45323 0.73333-1.3886 1.3333-2.0787 1.3333-0.69006 0-1.2546-0.6-1.2546-1.3333zm-128.25-0.91082c0.9625-0.38516 2.1125-0.33779 2.5556 0.10526 0.44305 0.44306-0.34445 0.75819-1.75 0.7003-1.5533-0.064-1.8692-0.37992-0.80556-0.80556zm-18.417-9.3796c0-8.5373 0-8.5373 4.9107-8.1234 4.0574 0.34192 5.1997 1.1257 6.5741 4.5109 2.4286 5.9818-0.0465 10.291-6.5154 11.342-4.9694 0.80775-4.9694 0.80775-4.9694-7.7295zm10.43 0.455c0.52093-4.4363-1.7624-7.4977-5.5929-7.4988-2.5684-7.5e-4 -2.794 0.61588-2.3846 6.5196 0.43939 6.3372 0.55178 6.494 4 5.5794 2.5798-0.68425 3.6651-1.9394 3.9776-4.6002zm9.2315 5.502c-3.7326-2.8513-4.2654-8.3957-1.11-11.551 3.5744-3.5744 6.1132-3.5216 8.7066 0.18113 2.763 3.9447 2.6229 8.1281-0.36271 10.83-2.9204 2.643-4.3419 2.7491-7.2339 0.53999zm6.75-5.9114c0.30632-3.162-0.27725-4.6132-2.2878-5.6892-2.2566-1.2077-3.0498-0.90905-4.8393 1.822-2.7782 4.2401-0.58574 9.1514 3.8061 8.5262 2.1853-0.3111 3.0122-1.4712 3.321-4.659zm122.92 5.6568c0-1.1433 0.6-2.0787 1.3333-2.0787 0.73334 0 1.3333 0.56459 1.3333 1.2546 0 0.69005-0.6 1.6255-1.3333 2.0787-0.73333 0.45322-1.3333-0.11137-1.3333-1.2546zm-114.62-1.991c-2.094-3.9126-1.6635-7.418 1.2327-10.039 5.8847-5.3256 13.078 1.7163 9.5849 9.383-1.8815 4.1295-8.7362 4.5451-10.818 0.656zm9.3134-1.4714c2.654-4.9591-1.1304-10.311-5.9762-8.4513-4.7995 1.8417-3.1717 11.168 1.9492 11.168 1.4151 0 3.2272-1.2227 4.027-2.717zm107.45-1.0485c-0.4703-0.76096-0.20538-1.7851 0.58871-2.2759 1.9815-1.2246 2.6829-0.25066 1.3605 1.889-0.70846 1.1463-1.3956 1.2827-1.9492 0.38685zm24.013-7.0754c-6.5467-3.3776-7.5379-4.3312-6-5.772 2.3167-2.1706 17.176-3.9573 17.176-2.0653 0 0.73974-1.5 1.345-3.3333 1.345-4.5926 0-4.4096 4.3079 0.33333 7.8466 5.4838 4.0914 0.91135 3.334-8.1756-1.3542zm1.8422-4.3676c0-1.2152-0.93326-1.6311-2.6517-1.1818-1.4584 0.38139-2.323 1.2252-1.9213 1.8752 1.1642 1.8837 4.573 1.3668 4.573-0.69343zm-24 5.2085c0-1.1 0.6-2 1.3333-2 0.73334 0 1.3333 0.9 1.3333 2s-0.6 2-1.3333 2c-0.73333 0-1.3333-0.9-1.3333-2zm2.0416-5.0575c-0.57075-1.315-0.66361-2.765-0.20635-3.2222 1.354-1.354 2.4454 0.54793 1.8223 3.1754-0.55247 2.3293-0.62434 2.3313-1.6159 0.0468zm-143.37-5.6092c0-1.7629-14.136-2-119.22-2-94.098 0-119.38 0.35123-119.96 1.6667-0.71675 1.6282-0.31396-91.92 1.3391-311 0.45096-59.767 0.74722-109.27 0.65835-110-0.0889-0.73333-0.30957-12.194-0.49045-25.467l-0.32887-24.134 24-0.8228c22.275-0.76366 66.552-0.5689 242.67 1.0674 37.4 0.34749 70.29 0.64497 73.09 0.66105 4.2128 0.0242 4.9718 0.43133 4.4048 2.3626-1.0617 3.6162-1.5487 68.816-0.52609 70.438 0.87256 1.3843 0.23042 26.462-0.72516 28.32-0.25689 0.49944-0.58532 20.282-0.72986 43.962-0.22655 37.118 0.0187 43.335 1.7785 45.095 2.921 2.921 2.9571 23.184 0.0413 23.184-1.7016 0-2 3.4815-2 23.333 0 20.051 0.28683 23.333 2.0392 23.333 1.6909 0 1.994 1.936 1.7748 11.333-0.23565 10.099-0.53683 11.333-2.7645 11.333-2.3675 0-2.4792 1.2902-2.1081 24.333l0.39192 24.333-55.333-0.81635v67.996c0 43.893 0.47264 68.288 1.3333 68.82 0.73333 0.45322 1.286 1.5386 1.2281 2.412-0.0759 1.145-0.29286 1.123-0.77778-0.0787-1.0428-2.5843-16.45-2.2721-16.45 0.33334 0 1.6711-2.7407 2-16.667 2-13.926 0-16.667-0.32889-16.667-2zm-17.333-50c0-39.407-0.26143-45.333-2-45.333-1.6296 0-2-2.2222-2-12 0-9.7778 0.37037-12 2-12 1.5873 0 2-1.9259 2-9.3333 0-5.1333-0.45-9.3392-1-9.3464-0.55-7e-3 -49.668-0.3995-109.15-0.87183-108.15-0.85877-108.15-0.85877-108.67 3.0131-0.28313 2.1295-0.35331 32.522-0.15596 67.538l0.35882 63.667h218.62zm-54.361-9c-0.79764-2.75-2.1157-7.55-2.9291-10.667-1.2348-4.7314-2.0206-5.6667-4.7608-5.6667-2.94 0-3.2819 0.55561-3.2819 5.3333 0 2.9333-0.59709 5.3333-1.3269 5.3333-0.81039 0-1.0858-3.5033-0.70768-9 0.34055-4.95 0.63765-10.35 0.6602-12 0.0335-2.4498 0.79066-3 4.1287-3 8.2267 0 11.763 5.3388 7.7706 11.732-1.1304 1.8101-0.80312 4.6185 1.4008 12.019 1.5818 5.3113 3.4456 9.3048 4.1418 8.8745 0.69622-0.43028 1.2658-0.14693 1.2658 0.62968 0 0.77662-1.105 1.412-2.4556 1.412-1.6909 0-2.9073-1.5571-3.9059-5zm-2.4004-19.762c1.1524-1.1524 2.0952-2.5324 2.0952-3.0667 0-2.1268-3.3984-4.1714-6.9333-4.1714-3.3778 0-3.7333 0.44444-3.7333 4.6667 0 4.0523 0.4263 4.6667 3.2381 4.6667 1.781 0 4.181-0.94286 5.3333-2.0952zm-46.641 22.408c-0.77165-0.53878-2.9219-5.1796-4.7784-10.313-4.1261-11.409-7.8186-13.471-7.8186-4.3644 0 3.2071 0.72 6.5511 1.6 7.4311 0.88889 0.88889 1.0074 1.6 0.26667 1.6-3.4144 0-4.5333-3.6859-4.5333-14.933 0-11.733 0-11.733 4.0876-11.733 8.4176 0 11.432 4.2856 7.2316 10.282-1.8234 2.6033-1.7458 3.5927 0.81974 10.45 1.5586 4.1658 3.965 8.7053 5.3475 10.088 2.4615 2.4615 0.78099 3.5904-2.2228 1.4932zm-4.5414-23.713c2.0123-2.4247-7e-5 -5.0305-5.0555-6.5465-2.7186-0.81523-3-0.45345-3 3.8569 0 4.1194 0.42462 4.7565 3.1701 4.7565 1.7435 0 3.942-0.93012 4.8855-2.0669zm-43.574 16.734c0.4483-1.8333 0.82329-8.2833 0.8333-14.333 0.0182-11 0.0182-11 5.0849-11 5.6942 0 8.2667 1.8671 8.2667 6 0 3.8629-2.4969 6-7.01 6-3.6527 0-3.7931 0.23172-3.4 5.6135 0.34543 4.7295 0.93493 5.7387 3.7433 6.4086 3.3123 0.79008 3.3144 0.80013 0.33466 1.5946-1.6493 0.43974-3.3908 0.16496-3.8702-0.61062-0.54577-0.88308-1.6052-0.46253-2.8346 1.1252-1.859 2.4009-1.9199 2.3586-1.148-0.79802zm9.9682-15.838c0.98083-0.6217 1.5808-2.5625 1.3333-4.3129-0.33096-2.3407-1.42-3.2942-4.1167-3.6044-3.3935-0.39047-3.6667-0.0676-3.6667 4.3333 0 4.9079 2.324 6.1993 6.45 3.584zm10.633 16.26c0.9625-0.38516 2.1125-0.33779 2.5556 0.10526 0.44306 0.44306-0.34444 0.75819-1.75 0.70029-1.5533-0.064-1.8692-0.37992-0.80555-0.80555zm-5.1858-2.2964c-0.42302-0.42651 0.62698-5.0579 2.3333-10.292 1.7064-5.2341 3.1025-10.388 3.1025-11.453 0-4.6654 3.302-0.23218 4.7429 6.3678 2.8998 13.282 3.2128 15.918 1.8904 15.918-0.715 0-1.3-1.8-1.3-4 0-3.5105-0.46588-4-3.8071-4-3.1079 0-4.0262 0.75626-5 4.1175-0.65608 2.2646-1.539 3.7685-1.962 3.342zm8.9428-13.126c-0.44218-1.65-0.8304-3.9-0.86272-5-0.0522-1.7778-0.18447-1.7778-1.1902 0-0.62233 1.1-1.5445 3.35-2.0493 5-0.75734 2.4755-0.4087 3 1.9942 3 2.3692 0 2.7622-0.55922 2.108-3zm26.918 1.1662c-0.32585-9.5882-0.0365-12.351 1.2418-11.857 1.1382 0.4392 1.6667 3.9798 1.6667 11.167 0 10.524 0 10.524 4.6667 10.524 2.5667 0 4.6667 0.6 4.6667 1.3333 0 0.73333-2.6588 1.3333-5.9085 1.3333h-5.9085zm16.957 9.8879c-3.0445-3.3642-4.0149-13.061-1.74-17.387 1.0587-2.0133 3.1415-3.4955 5.2596-3.7428 4.7612-0.5559 7.7647 3.9864 7.7647 11.743 0 10.292-5.9708 15.259-11.284 9.3874zm7.1559-1.8993c3.4304-4.1334 1.6493-16.821-2.3614-16.821-3.6674 0-5.5102 2.7938-5.5102 8.3543 0 8.6911 4.0606 13.059 7.8715 8.4672zm138.47-2.4881-0.34567-67-29.087-0.21604c-21.063-0.15643-29.238 0.2114-29.634 1.3333-0.74776 2.117-1.5678 122.2-0.87496 128.13l0.55436 4.7485h59.733zm-34.948 53.771c-0.43246-0.69973-0.6463-3.1095-0.47519-5.3551 0.3085-4.0487 0.37555-4.0828 8.0275-4.0828 4.2554 0 7.7164 0.59804 7.7164 1.3333 0 0.73334-3.07 1.3333-6.8221 1.3333-6.5752 0-6.7988 0.12181-6.1788 3.3652 0.65722 3.438-0.84947 5.701-2.2678 3.4061zm-12.626-15.105c-0.0579-3.4833 0.37426-6.3333 0.96034-6.3333s0.84259 2.25 0.57003 5c-0.76719 7.7406-1.4145 8.3046-1.5304 1.3333zm11.895-3.6667c0-5.3333 0-5.3333 8-5.3333 4.4444 0 8 0.5926 8 1.3333 0 0.73333-3 1.3333-6.6667 1.3333-6.5185 0-6.6667 0.0889-6.6667 4 0 2.2-0.6 4-1.3333 4-0.73333 0-1.3333-2.4-1.3333-5.3333zm-9.3333-4.5034c0-0.27687 0.9-1.2503 2-2.1633 1.638-1.3594 2-1.2683 2 0.50341 0 1.1898-0.9 2.1633-2 2.1633s-2-0.22654-2-0.50341zm9.3333-4.7401c0-0.78276 1.2-1.4232 2.6667-1.4232 3.7754 0 3.6913-6.1618-0.10048-7.3652-5.5872-1.7733-1.2159-2.1556 6.0516-0.52917 8.6914 1.945 9.4658 4.6809 2.0489 7.2379-9.5366 3.2878-10.667 3.5081-10.667 2.0796zm13.333-5.2677c0-0.6478-1.2-1.4916-2.6667-1.8752-1.7332-0.45323-2.6667-0.0409-2.6667 1.1778 0 1.0314 1.2 1.8752 2.6667 1.8752 1.4667 0 2.6667-0.53003 2.6667-1.1778zm-23.211-9.2905c-0.48479-0.78441 2.6951-1.6926 7.8651-2.2462 8.0169-0.85853 8.679-1.1738 8.679-4.1328 0-2.7512-0.47058-3.0853-3.3333-2.3668-2.0539 0.51549-3.3333 0.26935-3.3333-0.64126 0-0.92706 3.168-1.4779 8.5-1.4779 4.675 0 10.375-0.375 12.667-0.83333 2.6039-0.52077 4.1667-0.29459 4.1667 0.60304 0 0.83073-3.5138 1.6038-8.3333 1.8333-7.9028 0.37645-8.3319 0.56915-8.3055 3.7303 0.0234 2.8016 0.60826 3.2902 3.6667 3.0627 2.0014-0.14883 3.6388 0.30117 3.6388 1 0 0.69882-4.7509 1.2706-10.558 1.2706s-11.446 0.3409-12.532 0.75756c-1.0858 0.41667-2.3404 0.16501-2.788-0.55922zm23.211-19.532c0-1.5142-1.6384-2-6.7454-2-4.1152 0-6.427-0.51506-5.929-1.321 0.44902-0.72653 3.3001-1.2236 6.3358-1.1047 3.2103 0.12579 5.7372-0.4372 6.0401-1.3457 1.0442-3.1325 2.4399-1.4456 2.5689 3.1047 0.0728 2.5667-0.40833 4.6667-1.0691 4.6667s-1.2014-0.9-1.2014-2zm-13.333-11.16c0-0.63803 2.7-1.916 6-2.84 7.809-2.1864 7.6963-3.8636-0.19978-2.9736-3.8538 0.43437-5.8961 0.20745-5.3972-0.5997 0.44138-0.71417 4.1924-1.4356 8.3356-1.6033 8.6975-0.35188 9.4022 1.7225 1.8313 5.3906l-4.5698 2.214 5.3333 0.56182c4.0573 0.4274 3.3395 0.61545-3 0.78596-4.5833 0.12328-8.3333-0.29788-8.3333-0.93591zm2.1661-11.485c-3.1442-2.381-2.0168-5.6375 2.5532-7.375 4.7594-1.8095 6.7523-1.6512 9.1288 0.72526 2.0768 2.0768 1.5452 5.8072-1.0842 7.6077-2.3183 1.5874-7.9031 1.0826-10.598-0.95793zm9.0582-0.16431c1.16-0.44512 2.109-1.9451 2.109-3.3333 0-2-0.97759-2.524-4.7085-2.524-3.0873 0-4.9906 0.73497-5.5276 2.1346-1.2987 3.3843 3.4002 5.5367 8.1271 3.7228zm-17.623-7.7951c0.28959-1.8338 2.101-3.0174 6.122-4 3.1409-0.76757 6.2788-2.2956 6.9733-3.3956 1.0762-1.7046 1.2657-1.6554 1.2831 0.33333 0.0126 1.4376 1.0441 2.3333 2.6871 2.3333 1.4815 0 2.6667-0.88889 2.6667-2 0-1.1 0.54691-2 1.2154-2 0.66844 0 1.0144 1.05 0.76868 2.3333s-0.49258 2.8201-0.54869 3.415c-0.0561 0.59493-2.652 0.70093-5.7687 0.23555-5.8113-0.86775-12.723 0.90174-14.711 3.7662-0.71012 1.0232-0.95332 0.66197-0.68753-1.0212zm6.887-10.351c-0.35513-0.57461 3.1397-0.97514 7.7663-0.89007 8.8425 0.16258 8.3224 0.73337-1.3543 1.4862-3.1715 0.24674-6.0569-0.0215-6.412-0.59613zm18.178-5.1305v-5.4191l-14.003 0.41912c-7.7015 0.23051-14.002-0.0309-14-0.58088 2e-3 -0.55 6.9028-1 15.336-1h15.333v6c0 3.3-0.6 6-1.3333 6s-1.3333-2.4386-1.3333-5.4191zm-10.667-2.5809c0-0.73333 0.6-1.3333 1.3333-1.3333 0.73334 0 1.3333 0.6 1.3333 1.3333 0 0.73334-0.6 1.3333-1.3333 1.3333-0.73333 0-1.3333-0.6-1.3333-1.3333zm-105.01-14.808c-0.27426-1.689 0.71223-2.0807 4.6667-1.8532 2.758 0.15869 9.9644 0.37247 16.014 0.47505 8.8752 0.15049 11 0.5783 11 2.2147 0 1.7964 8.9305 1.9869 78.149 1.6667l78.149-0.36155 0.69683-82.333 0.69682-82.333-81.846-0.0438c-45.015-0.0241-89.946-0.0783-99.846-0.12039-9.9-0.0421-20.25-0.0224-23 0.0438l-5 0.12039v122.67l-34-0.57342 31.333-0.84454 0.16667-7.9577c0.0917-4.3767 0.24166-9.0077 0.33333-10.291 0.14347-2.0086-1.4107-2.4184-11.167-2.9448l-11.333-0.61143 11.333-0.7219c10.482-0.66769 11.365-0.94721 11.759-3.7219 0.3814-2.6855-0.17779-3.0244-5.3333-3.2329l-5.7594-0.23295 5.7488-0.5144c5.0292-0.45001 5.6968-0.87982 5.3333-3.4337-0.38022-2.6715-1.3775-2.9831-11.749-3.6709l-11.333-0.7516 11.667-0.2484c11.489-0.24463 11.667-0.29908 11.667-3.5817 0-1.8333-0.75-3.3425-1.6667-3.3538-1.284-0.0157-1.2971-0.25528-0.0572-1.0434 1.3506-0.85843 1.5307-5.1739 0.52576-12.603-0.0744-0.55-1.7853-1.0899-3.8019-1.1998-3.6667-0.19978-3.6667-0.19978 0.0788-0.76283 4.2664-0.64137 5.9531-3.5208 3.6723-6.269-1.0594-1.2765-1.1064-2.1368-0.14916-2.7284 0.76894-0.47523 1.3981-2.0286 1.3981-3.452 0-2.3766-1.1161-2.6091-13.667-2.8462l-13.667-0.25822 13.333-0.74178c13.143-0.73119 13.56-0.90494 12.867-5.3602-0.11-0.70678-6.05-1.4812-13.2-1.721l-13-0.43589 13.59-0.27905c13.351-0.27415 13.578-0.3318 12.893-3.2791-0.38344-1.65-0.63255-3.9-0.55357-5 0.079-1.1 0.27716-6.3495 0.4404-11.665l0.2968-9.6655-22.667-0.54519 11-0.44919c10.674-0.4359 11-0.54625 11-3.7286 0-3.2794 0-3.2794-15.152-3.2794h-15.152l-0.7573 5.6667c-0.41651 3.1167-0.50044 7.7667-0.1865 10.333s0.55237 5.2667 0.52984 6c-0.0225 0.73333-0.24853 21.883-0.50224 47-0.41888 41.469-0.26143 45.681 1.7129 45.821 1.8406 0.13094 1.8162 0.24822-0.15916 0.76443-2.1155 0.55284-2.3333 2.8982-2.3333 25.123v24.513l10.333 0.40657c5.6833 0.22362 18.133 0.39886 27.667 0.38942 15.167-0.015 17.29-0.28485 16.986-2.1589zm-20.319-37.192c0-0.73333 0.6-1.3333 1.3333-1.3333s1.3333 0.6 1.3333 1.3333-0.6 1.3333-1.3333 1.3333-1.3333-0.6-1.3333-1.3333zm-24.333-11.608c1.65-0.31781 4.35-0.31781 6 0 1.65 0.3178 0.3 0.57782-3 0.57782s-4.65-0.26002-3-0.57782zm-0.64129-22.65c1.2973-0.33806 3.0973-0.31583 4 0.0494s-0.15871 0.64182-2.3587 0.61465c-2.2-0.0272-2.9386-0.326-1.6413-0.66406zm7.308 0.041c0.91667-0.36989 2.4167-0.36989 3.3333 0 0.91667 0.36988 0.16667 0.67251-1.6667 0.67251-1.8333 0-2.5833-0.30263-1.6667-0.67251zm197.16-9.1685c-0.45726-1.1916-0.83139-6.3529-0.83139-11.47 0-5.2253-0.52997-8.9754-1.2091-8.5557-0.66502 0.41101-0.51502-1.5036 0.33333-4.2546 1.4338-4.6496 1.605-3.9217 2.431 10.331 0.8995 15.523 0.77811 17.862-0.72379 13.948zm-52.949-11.948c-2.2076-5.3262-3.7478-7.3333-5.6275-7.3333-2.1644 0-2.457 0.65465-1.788 4 0.54047 2.7023 0.27012 4.0009-0.83333 4.0028-1.1675 2e-3 -1.5058-2.47-1.1862-8.6667 0.4471-8.6695 0.4471-8.6695 4.7333-8.6695 2.3574 0 5.0062 0.72 5.8862 1.6 2.0159 2.0159 2.0921 6.4 0.11123 6.4-1.7692 0-1.0321 4.0383 2.0079 11 1.2008 2.75 1.6327 5 0.95961 5-0.67307 0-2.5915-3.3-4.2632-7.3333zm-0.18052-10.235c2.1742-2.1742-0.42493-5.0984-4.5315-5.0984-2.4925 0-3.1701 0.71244-3.1701 3.3333 0 2.5894 0.68445 3.3333 3.0667 3.3333 1.6867 0 3.7724-0.70572 4.6349-1.5683zm-150.01 15.311c1.2973-0.33806 3.0973-0.31582 4 0.0494 0.90271 0.36523-0.15871 0.64182-2.3587 0.61465-2.2-0.0272-2.9386-0.326-1.6413-0.66406zm175.09-5.6119c-1.5273-1.6876-2.1539-4.2014-1.8733-7.5147 0.91438-10.798 11.755-10.155 11.755 0.69757 0 8.2215-5.3011 11.879-9.8816 6.8171zm7.739-2.2398c1.8251-4.7561 0.85416-9.697-2.0891-10.631-3.032-0.96232-6.4349 2.0781-6.4349 5.7494 0 5.7319 6.7208 9.581 8.524 4.8818zm7.4633 4.109c-0.37367-0.73333-0.37367-5.2333 0-10l0.67939-8.6667 2.4405 7c2.2164 6.3574 4.8928 9.3355 4.8928 5.4444 0-0.85555 0.34862-1.2069 0.7747-0.78086s0.022 2.1761-0.89797 3.8889c-1.6597 3.0901-1.6908 3.0732-4.0167-2.186l-2.344-5.3002-0.42467 5.9669c-0.23357 3.2818-0.7304 5.3669-1.1041 4.6336zm-142.65-2.3864c-1.9753-0.99579-3.4781-3.0248-3.6886-4.9804-0.35476-3.2948-0.3521-3.2942 1.7092 0.36671 2.1614 3.8387 7.3127 5.0809 7.3127 1.7634 0-1.0468-1.5-3.0831-3.3333-4.5252-1.8333-1.4421-3.3333-3.8856-3.3333-5.4301 0-2.2187 0.82306-2.8081 3.9213-2.8081 2.1567 0 4.3168 0.63992 4.8002 1.422 1.3162 2.1296-0.53009 3.3027-2.3437 1.4891-2.1926-2.1926-5.0444-1.9732-5.0444 0.38798 0 1.0812 1.8 2.8966 4 4.0342 4.1572 2.1498 5.1557 5.6443 2.4 8.4-1.9715 1.9715-2.2626 1.966-6.4-0.1197zm13.771-6.947c6e-3 -5.1333 0.24691-7.07 0.53554-4.3036 0.28864 2.7664 0.2838 6.9664-0.0107 9.3333-0.29455 2.367-0.5307 0.10359-0.52479-5.0297zm8.6749 0.78851c0.38135-6.7443 0.0924-7.9742-2-8.5144-1.3452-0.34727 0.25426-0.63141 3.5543-0.63141s4.95 0.27439 3.6667 0.60976c-1.8912 0.49422-2.3333 2.1072-2.3333 8.512 0 5.4316-0.52108 7.903-1.6667 7.9047-1.1958 2e-3 -1.5408-2.2244-1.2209-7.8806zm14.888-0.02408c0-6.4048-0.44217-8.0178-2.3333-8.512-1.2833-0.33537 0.66666-0.59765 4.3333-0.58285s5.3167 0.28693 3.6667 0.60473c-2.7089 0.52176-3 1.3451-3 8.4851 0 4.3826-0.59433 7.9073-1.3333 7.9073-0.7389 0-1.3333-3.523-1.3333-7.9022zm12.02-0.4311c-0.0116-5.1247 0.5537-9 1.3129-9 1.7084 0 1.7084 13.356 0 16-0.90517 1.4007-1.2986-0.69703-1.3129-7zm8.1412-0.33333c-0.0721-4.8073 0.44668-8.6667 1.165-8.6667 0.71227 0 2.8153 3 4.6733 6.6667s3.7086 6.6667 4.1123 6.6667c0.40373 0 0.35319-3-0.1123-6.6667-0.55412-4.3647-0.35494-6.6667 0.57682-6.6667 0.86272 0 1.4232 3.413 1.4232 8.6667 0 4.7667-0.48952 8.6667-1.0878 8.6667-0.5983 0-2.5483-2.55-4.3333-5.6667l-3.2455-5.6667-0.40999 5.6667c-0.63777 8.8148-2.6167 6.6651-2.7617-3zm16.056 7.0179c-2.2566-2.2566-1.9007-11.145 0.54403-13.589 2.8603-2.8603 6.8562-2.6335 8.5245 0.48378 1.6885 3.1549 1.7346 4.0876 0.20242 4.0876-0.6478 0-1.4916-1.2-1.8752-2.6667-0.83881-3.2076-2.6905-3.3993-5.5184-0.57142-2.5741 2.5741-2.7015 7.2326-0.28805 10.533 2.1364 2.9217 6.9095 1.829 5.7063-1.3064-0.46296-1.2064 7e-3 -1.9888 1.195-1.9888 1.1636 0 1.9582 1.2649 1.9582 3.1173 0 2.6112-0.72221 3.1444-4.4488 3.2845-2.4468 0.092-5.1468-0.53079-6-1.384zm37.439 0.1061c-2.4396-2.4396-2.016-9.7189 0.76537-13.154 2.0576-2.541 2.8589-2.7584 5.3176-1.4426 6.0527 3.2393 5.2234 15.118-1.1075 15.863-1.825 0.21485-4.0639-0.35515-4.9755-1.2667zm7.7112-3.2165c1.7996-4.7334 0.29819-9.9075-2.875-9.9075-3.6777 0-6.0121 5.7364-4.0695 10 1.9628 4.3079 5.2882 4.2636 6.9444-0.0925zm-159.55 1.8068c-0.35611-0.57619 0.88794-1.0476 2.7646-1.0476 1.8766 0 3.412 0.47143 3.412 1.0476s-1.244 1.0476-2.7646 1.0476-3.0559-0.47142-3.412-1.0476zm-12.823-0.59733c0.91667-0.36988 2.4167-0.36988 3.3333 0 0.91667 0.36988 0.16667 0.67251-1.6667 0.67251-1.8333 0-2.5833-0.30263-1.6667-0.67251zm-1.25-8.0278c0.9625-0.38516 2.1125-0.33779 2.5556 0.10526 0.44305 0.44306-0.34445 0.75819-1.75 0.7003-1.5533-0.064-1.8692-0.37992-0.80556-0.80556zm7.9322-0.0322c1.6586-0.31893 4.0586-0.30682 5.3333 0.0269 1.2748 0.33373-0.0822 0.59467-3.0156 0.57987-2.9333-0.0148-3.9763-0.28785-2.3178-0.60677zm4.3178-6.7892c0-0.58608 2.25-0.8426 5-0.57004 7.7406 0.7672 8.3046 1.4145 1.3333 1.5304-3.4833 0.0579-6.3333-0.37426-6.3333-0.96033zm-3.6264-23.916c3.5055-0.27557 8.9055-0.27224 12 7e-3 3.0945 0.27963 0.22644 0.5051-6.3736 0.50103-6.6-4e-3 -9.1319-0.23285-5.6264-0.50842zm-3.4033-7.9806c2.367-0.29455 6.567-0.29939 9.3333-0.0108 2.7664 0.28864 0.82974 0.52963-4.3036 0.53555-5.1333 6e-3 -7.3967-0.23024-5.0297-0.52479zm1.3983-8.0157c3.136-0.28166 7.936-0.2777 10.667 9e-3 2.7306 0.2865 0.16476 0.51695-5.7019 0.51211-5.8667-5e-3 -8.1008-0.23926-4.9648-0.52092zm-12.497 142.31c0.11507-7.7917-0.12587-8.6229-2.3864-8.2333-1.8692 0.32217-2.2969-0.13344-1.6667-1.7757 0.46623-1.215 0.8477-5.16 0.8477-8.7667 0-4.9401 0.49332-6.5576 2-6.5576 1.7506 0 2-8.1482 2-65.333v-65.333l-31-0.12122c-55.636-0.21755-58.687-0.12943-59.844 1.7286-0.59092 0.94928-1.0995 38.184-1.1303 82.743l-0.0559 81.018 91.107-0.7017zm-63.205-20.918c0-1.1748 8.1-2.2501 16.333-2.1683 2.0167 0.02 3.6667-0.16313 3.6667-0.40703s-2.25-1.6071-5-3.0294c-5-2.586-5-2.586-1.2465-4.0318 2.0644-0.79525 4.279-1.4459 4.9213-1.4459 0.64232 0 1.4528-0.46104 1.801-1.0245 0.34826-0.56349-1.7163-0.80047-4.588-0.52662-3.2231 0.30738-5.2212-0.0659-5.2212-0.97546 0-0.89702 2.8686-1.4734 7.3333-1.4734 8.7849 0 9.4372 1.8825 1.7793 5.1348-5.554 2.3588-5.554 2.3588-1.3775 4.0888 2.2971 0.95148 4.8699 2.5654 5.7173 3.5865 1.2898 1.5541 0.12954 1.8566-7.1225 1.8566-4.7648 0-10.538 0.375-12.83 0.83333-2.2979 0.45958-4.1667 0.27233-4.1667-0.41752zm13.63-21.158c-5.3766-3.7659-2.9722-9.9244 3.8748-9.9244 3.8242 0 7.8286 3.012 7.8286 5.8886 0 2.2165-4.3391 6.1114-6.8083 6.1114-1.0624 0-3.2652-0.93402-4.895-2.0756zm9.6413-3.1574c1.2069-1.9528-3.3404-5.6133-6.4239-5.1713-3.5984 0.51586-4.517 5.0401-1.4749 7.2645 2.3275 1.7019 6.1851 0.67958 7.8988-2.0932zm-10.509-12.862c-2.543-2.543-2.5914-3.3832-0.36972-6.4215 2.1735-2.9724 10.055-2.4688 12.084 0.77206 1.0783 1.7226 0.82501 2.9036-1.0722 5-2.956 3.2663-7.7336 3.5579-10.642 0.64948zm9.8298-1.7648c0.99642-1.8618 0.85265-2.9413-0.54636-4.1024-2.7262-2.2626-7.9316-1.1582-8.4963 1.8026-0.90858 4.7637 6.6898 6.6962 9.0426 2.2998zm-21.258-7.3962c0-0.85808 3.45-2.7919 7.6667-4.2974 5.6653-2.0227 7.6667-3.3954 7.6667-5.2585 0-1.4652-0.93793-2.5284-2.2392-2.5382-1.2316-9e-3 -2.6816-0.45936-3.2222-1-0.54064-0.54065 2.417-0.983 6.5726-0.983 7.5556 0 7.5556 0 7.5556 5.1907 0 5.4106-3.0453 8.2973-5.823 5.5197-2.1167-2.1167-5.1555-1.6654-11.951 1.7749-3.8471 1.9476-6.226 2.5559-6.226 1.5918zm22.412-9.0757c0.3472-2.9166-0.019-3.3469-2.3333-2.7417-1.5098 0.39483-2.7452 1.7479-2.7452 3.0068 0 5.3127 4.4421 5.0808 5.0785-0.26514zm-10.936-24.444c-0.44513-1.16-0.80932-3.5913-0.80932-5.403 0-3.136 0.33578-3.2746 7-2.891 6.2747 0.36126 7.0476 0.74064 7.46 3.6616 0.28273 2.0031-0.45763 3.9296-1.9215 5-3.3686 2.4632-10.731 2.2324-11.729-0.36768zm10.486-1.0315c1.5772-1.1533 2.1519-2.64 1.5883-4.1088-0.85034-2.216-1.5298-2.2645-11.217-0.80105-0.99606 0.15048-0.10657 3.7438 1.2667 5.117 2.1062 2.1062 5.3065 2.0269 8.3618-0.20719zm-11.082-15.859c-0.21338-5-0.21338-5 7.12-5s7.3333 0 7.1336 4.3333c-0.18594 4.0332-0.23825 4.0794-0.75523 0.66666-0.50838-3.3559-1.0493-3.6667-6.3824-3.6667-5.5748 0-5.8502 0.18751-6.3647 4.3333-0.52946 4.2664-0.54105 4.2561-0.75114-0.66667zm6.5586-0.44444c0.064-1.5533 0.37992-1.8692 0.80555-0.80556 0.38516 0.9625 0.33779 2.1125-0.10526 2.5556-0.44306 0.44305-0.75819-0.34445-0.70029-1.75zm-6.0004-10.895c-0.42431-0.42432-0.77148-3.1357-0.77148-6.0252 0-4.243 0.40577-5.098 2.109-4.4444 1.16 0.44512 4.46 0.80931 7.3333 0.80931 4.8926 0 5.2243 0.24898 5.2243 3.9213 0 2.1567-0.66675 4.3334-1.4817 4.837-1.9465 1.203-11.424 1.8916-12.414 0.90203zm6.0405-4.7473c0.84456-3.1579 0.57912-3.5798-2.2523-3.5798-2.6053 0-3.1044 0.56484-2.6504 3 0.30757 1.65 0.60381 3.5 0.6583 4.1111 0.21696 2.433 3.3454-0.16987 4.2444-3.5313zm6.2807-0.68422c0.2743-1.8641-0.27981-2.8956-1.5556-2.8956-2.2352 0-3.4618 2.4713-2.5098 5.0564 0.943 2.5606 3.5766 1.1608 4.0654-2.1608zm253.98-101.56-0.26489-79.333-80.207-0.70587 0.36816 20.353c0.31113 17.2 0.67803 20.306 2.3682 20.052 1.658-0.24934 2.0523 2.1767 2.3057 14.185 0.27868 13.203 0.0836 14.544-2.2034 15.142-2.3 0.60145-2.5244 2.267-2.6929 19.979-0.16681 17.541 0.0365 19.38 2.2052 19.947 1.988 0.51988 2.3111 1.7792 1.9251 7.5029-0.25514 3.783-1.006 6.8782-1.6685 6.8782-0.66256 0-1.2046 0.63541-1.2046 1.412 0 0.77661 0.6 1.0412 1.3333 0.58797 0.73333-0.45322 1.3333 0.3623 1.3333 1.8123 0 1.45 0.33394 3.5065 0.74208 4.5701 0.46365 1.2083-0.28674 2.2029-2 2.6509-2.4936 0.65208-2.7421 1.7354-2.7421 11.953 0 6.1798 0.25595 11.486 0.56877 11.791s18.463 0.55556 40.333 0.55556h39.765zm-26.486 52.126c-1.5612-4.3414-2.9513-6.3111-4.1339-5.8573-0.97997 0.37605-1.7818 1.8195-1.7818 3.2077s-0.66419 2.524-1.476 2.524-1.1118-0.94907-0.66667-2.109c0.44513-1.16 0.80932-4.7998 0.80932-8.0886 0-5.7365 0.14902-5.9624 3.6667-5.5576 3.4409 0.39592 3.6721 0.83234 3.7547 7.0886 0.0484 3.6667 1.1138 8.6167 2.3676 11 1.2538 2.3833 1.7244 4.3333 1.0459 4.3333-0.67851 0-2.2921-2.9435-3.5858-6.5411zm-0.58234-10.792c0-1.7778-0.88889-2.6667-2.6667-2.6667s-2.6667 0.88889-2.6667 2.6667 0.88889 2.6667 2.6667 2.6667 2.6667-0.88888 2.6667-2.6667zm21.333 8c0-3.1111-0.59259-4-2.6667-4-1.9556 0-2.6667 0.88889-2.6667 3.3333 0 1.8333-0.45 3.3334-1 3.3336-1.2318 3.1e-4 -1.1345-14.31 0.10578-15.55 0.49182-0.49181 0.89422 1.0058 0.89422 3.328 0 3.2873 0.57177 4.2222 2.5822 4.2222 1.914 0 2.7213-1.1213 3.12-4.3333 0.29576-2.3833 0.63378-0.28333 0.75114 4.6667s-0.0866 9-0.45328 9c-0.36667 0-0.66667-1.8-0.66667-4zm-64-4.588c0-3.99 0.6-7.6255 1.3333-8.0787 0.75043-0.46378 1.3333 0.60527 1.3333 2.4453 0 3.1242 2.8578 5.5857 4.5363 3.9072 1.6679-1.6679 0.6987-5.5161-1.5363-6.1001-1.8101-0.47304-1.6814-0.64445 0.57393-0.76444 2.0594-0.10956 3.0315 0.72028 3.3333 2.8453 0.66919 4.7119-0.4059 13.055-1.5881 12.325-0.58785-0.36331-0.75517-1.86-0.37181-3.3259 0.53476-2.0449 0.0401-2.6653-2.1252-2.6653-2.1214 0-2.8222 0.82766-2.8222 3.3333 0 1.8333-0.6 3.3333-1.3333 3.3333-0.73333 0-1.3333-3.2646-1.3333-7.2546zm13.333-0.74536c0-8 0-8 4-8 2.2 0 4 0.6 4 1.3333s-1.2 1.3333-2.6667 1.3333c-1.9465 0-2.6667 0.88889-2.6667 3.2915 0 2.378 0.55507 3.0785 2 2.524 1.1-0.42211 2-0.10328 2 0.70852 0 0.81179-0.9 1.476-2 1.476s-2 0.96998-2 2.1555c0 1.4991 0.81211 1.9431 2.6667 1.4582 1.4667-0.38354 2.6667-0.15352 2.6667 0.51116s-1.8 1.2085-4 1.2085c-4 0-4 0-4-8zm11.287 3.3333c0.37599-2.9333 0.69022-6.6833 0.69829-8.3333 0.0258-5.2684 3.6228-3.2989 5.1657 2.8283 0.80718 3.2056 1.8426 6.8056 2.3009 8 0.46075 1.2007 0.17341 2.1717-0.64264 2.1717-0.81179 0-1.476-1.2-1.476-2.6667 0-3.5928-3.2168-3.3851-5.1612 0.33333-1.381 2.6411-1.4869 2.3619-0.88509-2.3333zm4.6926-3c-0.0112-0.55-0.60205-1.9-1.3129-3-1.0452-1.6173-1.2964-1.4259-1.3129 1-0.0112 1.65 0.57959 3 1.3129 3s1.3242-0.45 1.3129-1zm18.687 1c0-3.6667-0.6-6.6667-1.3333-6.6667-0.73334 0-1.3333-0.6-1.3333-1.3333s2.1-1.3333 4.6667-1.3333 4.6667 0.6 4.6667 1.3333-0.9 1.3333-2 1.3333c-1.5111 0-2 1.6296-2 6.6667 0 3.6667-0.6 6.6667-1.3333 6.6667-0.73333 0-1.3333-3-1.3333-6.6667zm0.82224-62.667c-2.2761-5.6885-6.7562-7.3891-7.9031-3-0.33537 1.2833-0.67936-0.85469-0.76443-4.7512-0.15467-7.0845-0.15467-7.0845 4.1787-6.6667 3.8646 0.37261 4.3037 0.83273 4.0592 4.2536-0.1508 2.1097 0.8992 6.1358 2.3333 8.9469 2.9357 5.7545 3.1082 6.5507 1.4189 6.5507-0.65371 0-2.1488-2.4-3.3225-5.3333zm-2.4064-10.318c-0.66935-3.4756-5.0825-3.8633-5.0825-0.44641 0 1.9081 0.8563 2.7644 2.7644 2.7644 1.9081 0 2.6262-0.71803 2.318-2.318zm-46.416 1.9042c0-7.2494 0-7.2494 4.3333-6.3632 4.1085 0.84028 4.3333 1.1947 4.3333 6.8316 0 5.733-0.15479 5.9603-4.3333 6.3632-4.3333 0.41781-4.3333 0.41781-4.3333-6.8316zm6.4401 4.582c1.0073-0.63857 1.5833-2.7898 1.3333-4.9796-0.32133-2.8149-1.2497-3.9703-3.4401-4.2814-3.1813-0.45181-3.7483 1.498-2.1596 7.4261 0.87301 3.2576 1.5577 3.5521 4.2664 1.8349zm7.7821 1.6095c-0.48889-0.48889-0.88889-3.1678-0.88889-5.9531 0-6.165 3.7984-9.1692 7.2407-5.7268 2.4773 2.4773 2.757 8.7044 0.4926 10.969-1.7432 1.7432-5.4293 2.1262-6.8444 0.71111zm6.8496-6.2813c-0.30547-3.1392-1.061-4.1631-3.0718-4.1631-1.9504 0-2.7849 1.0356-3.1068 3.8553-0.46544 4.0774 1.6266 6.3732 4.7243 5.1844 1.1761-0.4513 1.7105-2.2434 1.4542-4.8766zm5.3971 3.9352c-1.9142-4.2011-0.51689-9.6004 2.7023-10.442 3.3244-0.86934 5.0384 0.30139 6.6509 4.5426 2.7214 7.1578-6.2124 12.793-9.3532 5.8996zm6.6379 0.73659c2.4925-1.5801 1.4509-8.7064-1.3501-9.2373-2.82-0.53447-5.194 3.7167-4.1993 7.5201 0.79301 3.0325 2.595 3.5901 5.5495 1.7171zm-127.77 97.846c0-2.965 26.38-2.9785 27.518-0.014 0.64745 1.6872 5.0154 2 27.929 2h27.162l-0.30452-79.222c-0.16749-43.572-0.60453-79.518-0.97119-79.879-0.36667-0.36118-40.254-0.83692-88.64-1.0572-87.973-0.40048-87.973-0.40048-88 2.8791-0.0271 3.2735-0.0559 3.2803-15.601 3.6544-15.574 0.37484-15.574 0.37484-16-3.3189-0.40756-3.5347-0.74166-3.6944-7.7592-3.7082l-7.3333-0.0144-0.36806 20.333c-0.31678 17.5-0.0846 20.333 1.6667 20.333 1.4288 0 2.0909 1.489 2.2234 5 0.87456 23.171 0.8264 24.333-1.008 24.333-2.2988 0-2.1271-1.4538-2.4125 20.428-0.20796 15.943 0.0573 18.587 1.9674 19.609 1.8046 0.96578 2.2488 3.6267 2.4327 14.572 0.21358 12.714 0.0858 13.391-2.5277 13.391-2.578 0-2.728 0.65554-2.3632 10.333l0.38942 10.333 61.333 0.66667c33.733 0.36666 65.683 0.82298 71 1.014 7.8869 0.28341 9.6667-0.0234 9.6667-1.6667zm-48.743-54.1c-16.338-1.6075-28.395-8.689-30.746-18.059-2.3389-9.3189 6.7032-20.831 20.01-25.477 10.164-3.5483 33.087-3.215 45.646 0.66372 17.052 5.2661 23.192 16.152 16.331 28.954-3.6888 6.8824-5.4476 8.1352-15.832 11.277-9.5021 2.8749-22.887 3.8734-35.409 2.6414zm37.654-5.5298c9.0136-3.59 13.781-9.473 13.708-16.915-0.1269-12.9-12.143-19.804-36.752-21.115-15.959-0.85002-24.542 0.85375-33.204 6.591-7.579 5.0201-10.53 10.366-9.5896 17.375 1.7174 12.804 16.32 18.789 43.218 17.713 11.437-0.45753 16.762-1.3166 22.619-3.6495zm-51.326-13.384c-0.23748-7.2216-0.44559-7.6667-3.5854-7.6667-1.8333 0-3.3333-0.6-3.3333-1.3333 0-0.73333 3-1.3333 6.6667-1.3333 3.6667 0 6.6667 0.6 6.6667 1.3333 0 0.73334-1.17 1.3333-2.6001 1.3333-2.2207 0-2.6703 1.1188-3.0812 7.6667l-0.48109 7.6667zm5.7463 4.6667c0.52269-1.2833 1.843-4.8826 2.9341-7.9984 1.0911-3.1158 2.4991-5.9836 3.1289-6.3728 1.0976-0.67835 5.2719 11.219 5.2719 15.025 0 4.1494-2.424-0.0553-3.265-5.6634-0.49835-3.3232-1.4676-5.6952-2.1538-5.271-1.4887 0.92008-1.6689 5.4894-0.24777 6.2842 0.55 0.30758 0.30502 0.39753-0.5444 0.19987s-1.9108 1.1007-2.3587 2.8852c-0.44789 1.7845-1.4671 3.2446-2.2649 3.2446-0.85466 0-1.0602-0.95857-0.50023-2.3333zm14.168-6.3333c0-7.5037 0.32683-8.6667 2.4356-8.6667 1.3396 0 3.8326 1.1312 5.5401 2.5138 2.5805 2.0896 2.8196 2.8572 1.4163 4.548-1.1389 1.3723-1.2333 2.3152-0.29009 2.8982 2.1341 1.319 1.6648 5.6524-0.71098 6.564-1.16 0.44512-3.5225 0.80931-5.25 0.80931-2.9769 0-3.141-0.45266-3.141-8.6667zm6.538 5.9797c3.0829-1.6499 2.0391-5.313-1.514-5.313-1.8034 0-2.524 0.95169-2.524 3.3333 0 3.7208 0.40951 3.9216 4.038 1.9797zm1.0444-8.9644c-0.66935-3.4756-5.0825-3.8633-5.0825-0.44641 0 1.9081 0.8563 2.7644 2.7644 2.7644 1.9081 0 2.6262-0.71802 2.318-2.318zm5.3646 2.9875c0.54271-10.523 2.8862-11.608 2.8862-1.3361 0 6.9333 0.18181 7.3333 3.3333 7.3333 1.8333 0 3.3333 0.6 3.3333 1.3333s-2.25 1.3346-5 1.3361c-5 3e-3 -5 3e-3 -4.5529-8.6667zm12.22 1.3305c0-4.0333-0.15-7.7833-0.33333-8.3333-0.18334-0.55 1.9167-1.1247 4.6667-1.2771 2.75-0.15243 5 0.29757 5 1 0 0.70242-1.8 1.2771-4 1.2771-3.0631 0-4 0.60289-4 2.5739 0 1.6092 1.1245 2.7905 3 3.1518 3 0.57782 3 0.57782 0 0.7594-2.0506 0.12411-3 1.0255-3 2.8482 0 2.0741 0.88889 2.6667 4 2.6667 2.2 0 4 0.6 4 1.3333s-2.1 1.3333-4.6667 1.3333c-4.6667 0-4.6667 0-4.6667-7.3333zm-113.97-66.831c-2.5863-2.5863-2.2076-5.6822 0.9373-7.6626 1.7201-1.0832 2.7242-0.98631 4 0.38603 1.3839 1.4887 1.3799 1.6491-0.0217 0.85524-2.3172-1.3124-5.6427 1.6112-4.6816 4.1158 0.51777 1.3493 1.7957 1.7438 3.9207 1.2104 3.8126-0.95689 4.1044-0.0103 0.57855 1.8767-1.9532 1.0453-3.0948 0.85682-4.7333-0.78159zm11.831 0.0554c0.44512-1.16 0.8883-3.71 0.98484-5.6667 0.14633-2.966 0.31262-2.7816 1 1.109 0.45346 2.5667 1.5245 4.6667 2.38 4.6667 0.85556 0 2.0056 0.45 2.5556 1s-0.9642 1-3.3649 1c-3.4324 0-4.192-0.45056-3.5556-2.109zm11.032 1.2202c-1.748-1.748-0.87502-8.1645 1.2202-8.9685 3.2533-1.2484 4.1562-0.88274 1.5576 0.63081-1.2833 0.74748-2.3333 2.4938-2.3333 3.8808 0 5.369 4.733 4.2445 5.5596-1.3209 0.49204-3.3128 0.50037-3.3147 1.3491-0.30988 1.2651 4.4792-4.3296 9.1111-7.3531 6.0877zm24.06 0.0596c-1.434-1.434-1.1362-9.564 0.38482-10.504 0.73334-0.45323 1.3333 0.41136 1.3333 1.9213 0 3.5233 1.5525 3.5022 3.7716-0.0512 0.96055-1.5381 2.0904-2.4526 2.5107-2.0322 0.42036 0.42035-4e-3 1.69-0.94307 2.8215-1.4048 1.6927-1.3203 2.4849 0.47667 4.4705 3.4279 3.7878 2.5528 5.0146-1.1174 1.5667-3.3014-3.1015-3.3014-3.1015-4.3848-0.17279-0.59587 1.6108-1.5102 2.5019-2.0319 1.9802zm-12.436-2.4262c-1.9688-5.1307 2.9974-9.7684 6.6012-6.1646 1.1067 1.1067 0.63552 1.3998-1.8083 1.125-2.54-0.28557-3.305 0.24566-3.305 2.2951 0 1.9921 0.77844 2.5828 3.0775 2.3353 1.7754-0.19115 2.7293 0.23196 2.2546 1-1.2408 2.0076-5.9805 1.597-6.82-0.59078zm292.82 113.26c0-19.111-0.48395-30-1.3333-30-0.80423 0-1.3333-5.5556-1.3333-14 0-8.4444 0.5291-14 1.3333-14 1.4453 0 1.91-62.38 0.50374-67.625-0.75539-2.8178-1.4531-2.9574-14.643-2.9301l-13.849 0.0287 0.072 79.263 0.072 79.263h29.178zm-336 2c0-0.73333-0.63541-1.3333-1.412-1.3333s-1.0412 0.6-0.58798 1.3333c0.45323 0.73333 1.0886 1.3333 1.412 1.3333 0.32338 0 0.58797-0.6 0.58797-1.3333zm42.338-128.56c0.36195-0.36194 0.36038-1.434-3e-3 -2.3823-0.48672-1.2685-4.084-1.6649-13.611-1.4998-7.1224 0.12339-13.273 0.54752-13.668 0.94249-0.39498 0.39498-0.34236 1.6974 0.11692 2.8943 0.72051 1.8776 2.5958 2.0751 13.671 1.4398 7.06-0.405 13.132-1.0325 13.494-1.3944zm335.72 464.65c-0.48338-0.78212-0.40844-2.172 0.16654-3.0887 0.57498-0.91667 0.87267-2.7167 0.66154-4-0.22134-1.3454 0.4529-2.3333 1.5925-2.3333 1.6376 0 1.7423 0.85698 0.61102 5-1.6137 5.9096-1.8759 6.292-3.0316 4.422zm14.445-6.922c0.45834-2.2917 0.83334-4.9917 0.83334-6 0-1.0083 0.6-1.8333 1.3333-1.8333s1.3333 1.1437 1.3333 2.5416c0 2.0387 1.319 2.723 6.6667 3.4584 3.6667 0.50429 6.6667 1.5038 6.6667 2.2211 0 0.80297-2.8182 0.95204-7.3333 0.38792-6.2403-0.77968-7.3333-0.59524-7.3333 1.2374 0 1.1845-0.675 2.1536-1.5 2.1536-0.96889 0-1.2049-1.4753-0.66667-4.1667zm-12.5-5.088c0-0.69006 0.54368-1.5907 1.2082-2.0013 0.66449-0.41068 0.89451-1.9461 0.51116-3.412-0.38957-1.4897-0.0403-2.6653 0.79184-2.6653 1.6151 0 1.9767 3.8439 0.67952 7.2243-0.87552 2.2816-3.1907 2.9015-3.1907 0.85441zm21.667-4.4413c-4.0935-0.78694-7-2.0536-7-3.0507 0-1.3184 1.1032-1.4004 4.8652-0.36166 2.6758 0.73884 6.2758 1.0737 8 0.74409 2.3827-0.45549 3.1348-4e-3 3.1348 1.8825 0 1.365-0.45 2.403-1 2.3066-0.55-0.0963-4.15-0.78073-8-1.5209zm10.439-0.41509c0.064-1.5533 0.37992-1.8692 0.80555-0.80556 0.38516 0.9625 0.33779 2.1125-0.10526 2.5556-0.44306 0.44305-0.75819-0.34445-0.70029-1.75zm-10.224-6.5556c0.75402-3.0042 0.43918-3.3333-3.1888-3.3333-2.214 0-4.0254-0.64317-4.0254-1.4293 0-1.3477 13.75-0.48913 16.355 1.0212 1.906 1.1049-0.34331 2.8281-2.8395 2.1754-1.7097-0.44711-2.7074 0.21395-3.2072 2.1252-0.399 1.5258-1.4467 2.7742-2.3282 2.7742-1.0438 0-1.3109-1.1625-0.76609-3.3333zm11.645 0.66667c3e-3 -1.8333 0.48554-6.0333 1.0727-9.3333l1.0676-6 0.0732 6.6667c0.0403 3.6667-0.44248 7.8667-1.0727 9.3333-1.0442 2.4299-1.1454 2.3707-1.1408-0.66667zm-31.248 0.50006c-1.0405-1.0405 0.39313-4.5001 1.8648-4.5001 1.5235 0 1.5579 3.6157 0.0433 4.5517-0.63105 0.39001-1.4897 0.36676-1.9081-0.0517zm0.89812-7.4214c-0.53979-0.87339-0.27623-1.823 0.58568-2.1104 0.97421-0.32473 1.2422-1.817 0.70828-3.9442-0.60127-2.3956-0.40064-3.1387 0.66896-2.4776 0.84028 0.51932 1.5278 0.30881 1.5278-0.4678s-0.62111-1.412-1.3802-1.412c-0.94978 0-0.95127-0.80154-5e-3 -2.5701 0.75651-1.4135 1.0134-3.5135 0.57093-4.6667-0.4425-1.1531-0.22355-2.0966 0.48655-2.0966s1.0044-1.5 0.65388-3.3333c-0.37196-1.9458-0.0175-3.3333 0.85157-3.3333 1.82 0 1.8199-0.44662 2e-3 13.368-0.81767 6.2141-1.5177 12.048-1.5556 12.965-0.0873 2.1117-1.8315 2.1558-3.1152 0.0787zm14.157-12.245c0-4.0946 1.7459-10.167 2.9232-10.167 0.69108 0 0.90045 1.1219 0.46525 2.493-0.62922 1.9825 0.0691 2.6651 3.4102 3.3333 2.3108 0.46216 5.9264 0.84029 8.0348 0.84029 2.7697 0 3.8277 0.64743 3.8129 2.3333-0.0115 1.3176-0.44683 1.7529-1 1-0.53877-0.73334-4.1296-1.5262-7.9796-1.762-5.6567-0.34641-7-0.0266-7 1.6667 0 1.1524-0.6 2.0953-1.3333 2.0953s-1.3333-0.825-1.3333-1.8333zm10.333-16.31c-4.2167-2.606-7.6667-5.2232-7.6667-5.8159s2.25-1.465 5-1.9384 6.65-1.1878 8.6667-1.5877c2.1845-0.43313 3.6667-0.14521 3.6667 0.71226 0 0.7916-1.3698 1.4393-3.044 1.4393-2.4706 0-3.0139 0.69072-2.8843 3.6667 0.099 2.2713 1.0037 3.8307 2.3774 4.0978 1.2197 0.2371 2.2176 1.2871 2.2176 2.3333 0 2.4104 0.6225 2.6276-8.3333-2.9073zm1.6667-4.3389c0-1.9679-0.73418-2.3414-3.5456-1.804-3.3368 0.63786-3.4003 0.78404-1.0785 2.4818 3.3546 2.4529 4.6241 2.2669 4.6241-0.67778zm-21.673 4.3645c-1.4903-1.4903-1.1977-7.4994 0.31945-6.5618 0.81448 0.50338 1.0044-0.73273 0.5-3.2546-0.52102-2.6051-0.27425-4.0663 0.68674-4.0663 1.6028 0 1.8061 6.6332 0.3609 11.772-0.48031 1.7077-1.3205 2.6577-1.8671 2.1111zm27.673-13.216c-0.73334-0.2511-4.1833-0.84049-7.6667-1.3098s-6.3333-1.3333-6.3333-1.92c0-0.5867 1.6337-0.75444 3.6304-0.37274 3.6304 0.69401 3.6304 0.69401-0.0548-3.6856-2.0269-2.4088-3.3544-4.7105-2.95-5.1149 0.40438-0.40439 1.5721 0.40923 2.5949 1.808 1.7889 2.4465 2.0438 2.4555 6.6981 0.236 5.478-2.6122 7.4146-2.8806 7.4146-1.0275 0 0.7039-2.4055 2.0005-5.3456 2.8814-5.0798 1.5219-5.2353 1.7236-3.1267 4.0535 1.2204 1.3486 3.326 2.4519 4.679 2.4519s2.46 0.6 2.46 1.3333-0.15 1.286-0.33334 1.2281c-0.18333-0.0579-0.93333-0.3107-1.6667-0.56179zm-26.548-3.5251c0.51854-0.83902 0.89408-3.239 0.83454-5.3333-0.0596-2.0943 0.4516-3.8078 1.1359-3.8078 0.68428 0 1.236 1.05 1.226 2.3333-0.0306 3.9238-1.556 8.3333-2.8827 8.3333-0.69108 0-0.83226-0.68647-0.31372-1.5255zm2.2063-11.36c-0.92124-0.37141-1.2776-1.3183-0.79184-2.1042s0.80774-3.4347 0.71558-5.8861c-0.0922-2.4514 0.43308-4.4572 1.1672-4.4572 0.76278 0 1.1739 2.8544 0.95939 6.661-0.20645 3.6635-0.37537 6.6162-0.37537 6.5614 0-0.0548-0.75374-0.40344-1.675-0.77484zm18.342-2.9811c-3.3-0.43985-5.85-1.2497-5.6667-1.7997s0.33333-2.8 0.33333-5 0.6681-4 1.4847-4c0.8912 0 1.25 1.5989 0.89759 4-0.46951 3.199-0.0993 4 1.8487 4 1.3397 0 2.4357-0.9 2.4357-2s0.6-2 1.3333-2c0.73334 0 1.3333 1.2 1.3333 2.6667 0 1.4815 0.88889 2.6667 2 2.6667 1.3333 0 2-1.3333 2-4 0-2.3553 0.69979-4 1.7019-4 1.1814 0 1.5464 1.631 1.1933 5.3333-0.54943 5.7614-0.0631 5.5769-10.895 4.1331zm-18.022-12.524c-1.0518-2.5805-0.2308-4.174 1.7594-3.4147 0.68079 0.25973 0.78269 1.6722 0.22645 3.1389-0.94317 2.4869-1.077 2.5055-1.9858 0.27583zm21.103-3.4929c-8.3685-1.018-9.96-2.2506-5.2667-4.079 11.46-4.4644 11.493-4.5155 3.5182-5.4291-8.9608-1.0267-7.6358-1.5083 4.8258-1.7542 11.206-0.22112 11.684 1.4722 1.4593 5.1638-6.3346 2.287-6.6558 2.593-3.6184 3.4465 4.9604 1.3938 9.5962 1.3732 8.7236-0.0388-0.4219-0.68266-0.15731-1.6181 0.58798-2.0787 1.8995-1.174 1.6975 2.4441-0.24492 4.3866-0.88 0.88-1.93 1.5155-2.3333 1.4123s-3.8465-0.56644-7.6515-1.0293zm-19.707-3.1738c-0.57075-1.315-0.66361-2.765-0.20635-3.2222 1.354-1.354 2.4454 0.54793 1.8223 3.1754-0.55247 2.3293-0.62434 2.3313-1.6159 0.0469zm-0.20163-6.8786c-0.81469-2.123 0.34153-4.7305 2.0976-4.7305 0.61248 0 1.0271 1.4996 0.92131 3.3324-0.21169 3.6687-1.8555 4.43-3.019 1.3981zm29.968-6.1148c-0.92906-2.609 0.72757-8.9853 1.8589-7.1547 0.48749 0.78877 0.42483 3.1598-0.13925 5.269-0.66221 2.4761-1.2715 3.1442-1.7196 1.8858zm-29.141-2.6158c0-1.4667 0.6-2.6667 1.3333-2.6667s1.3333 1.2 1.3333 2.6667c0 1.4667-0.6 2.6667-1.3333 2.6667s-1.3333-1.2-1.3333-2.6667zm0-6.4444c0-1.3444 0.9-2.4444 2-2.4444 2.287 0 2.2714-0.0364 1.1907 2.7798-1.1061 2.8824-3.1907 2.6633-3.1907-0.33539zm20.333-2.5385c-6.2971-0.44054-7-0.80102-7-3.5901 0-3.7388 3.1842-6.6919 6.0357-5.5977 1.1383 0.43682 3.2825 0.0539 4.7648-0.85083 2.2796-1.3914 2.991-1.246 4.614 0.94312 2.3838 3.2154 2.5622 10.174 0.25213 9.8318-0.91667-0.13565-4.8167-0.46701-8.6667-0.73634zm-0.33333-4.9383c0-2.7836-2.7661-4.0674-4.1287-1.9162-1.8076 2.8538-1.4328 3.8375 1.462 3.8375 1.4667 0 2.6667-0.86459 2.6667-1.9213zm8-0.74535c0-1.7778-0.88889-2.6667-2.6667-2.6667s-2.6667 0.88889-2.6667 2.6667 0.88889 2.6667 2.6667 2.6667 2.6667-0.88889 2.6667-2.6667zm-28 1.3333c0-1.4815 0.88889-2.6667 2-2.6667s2 1.1852 2 2.6667-0.88889 2.6667-2 2.6667-2-1.1852-2-2.6667zm2.0416-5.7242c-0.57075-1.315-0.6636-2.765-0.20634-3.2222 1.354-1.354 2.4454 0.54793 1.8223 3.1754-0.55247 2.3293-0.62435 2.3313-1.6159 0.0469zm14.972-7.8818c2.9393-2.9393 2.9393-2.9393 0.0688-5.9947-4.1926-4.4629-1.7345-5.5232 2.7792-1.1988 2.745 2.6299 4.9153 3.5488 7.6434 3.2361 3.4537-0.3958 3.8464-0.96863 4.2014-6.1282 0.33527-4.8728-0.047-5.8676-2.6573-6.9155-2.4227-0.97257-2.5535-1.2413-0.63684-1.3084 1.3266-0.0465 2.0668-0.64306 1.6449-1.3257-0.42191-0.68266-0.15732-1.6181 0.58797-2.0787 0.7453-0.46061 1.3551-2.234 1.3551-3.9407 0-2.6554-0.86526-3.233-5.9961-4.0024-6.1919-0.92854-9.2842-0.14181-7.947 2.0218 0.4219 0.68266-0.0226 1.2412-0.98786 1.2412-1.2618 0-1.6209-1.6862-1.2778-6 0.50116-6.3012 2.389-8.1188 3.116-3 0.38099 2.6826 1.178 3 7.5324 3h7.1063l-0.43966 15.559c-0.24182 8.5576-0.77941 15.897-1.1946 16.311-0.41524 0.41318-2.5639 0.23245-4.7747-0.40162-3.1216-0.89526-4.7404-0.59888-7.245 1.3265-4.4755 3.4404-6.4455 3.1662-2.8786-0.40064zm-15.68-0.31537c0-2.1521 1.8884-3.7458 3.0555-2.5788 1.0405 1.0405-0.39313 4.5001-1.8648 4.5001-0.65487 0-1.1907-0.86459-1.1907-1.9213zm1.3333-7.4907c0-1.5099 0.6-2.3745 1.3333-1.9213 0.73333 0.45323 1.3333 1.6886 1.3333 2.7454s-0.6 1.9213-1.3333 1.9213c-0.73334 0-1.3333-1.2354-1.3333-2.7454zm68.105-3.3658c0.064-1.5533 0.37992-1.8692 0.80555-0.80556 0.38516 0.9625 0.33779 2.1125-0.10526 2.5556-0.44306 0.44305-0.75819-0.34445-0.70029-1.75zm-68.105-3.2222c0-1.4667 0.84383-2.6667 1.8752-2.6667 1.2187 0 1.631 0.93351 1.1778 2.6667-0.38354 1.4667-1.2274 2.6667-1.8752 2.6667-0.64781 0-1.1778-1.2-1.1778-2.6667zm0.98076-4.797c-1.2019-1.2019 0.45307-4.6316 1.8256-3.7833 0.65649 0.40573 1.1936-0.23313 1.1936-1.4197 0-1.1866-0.6-1.7866-1.3333-1.3333-0.73333 0.45323-1.3333-0.41136-1.3333-1.9213 0-3.453 0.84275-3.4867 2.652-0.10605 2.2413 4.1878-0.25776 11.311-3.0046 8.5637zm2.0192-13.419c-2.3445-0.94604-2.0821-4.4503 0.33334-4.4503 1.1111 0 2 1.1852 2 2.6667 0 1.4667-0.15 2.6193-0.33334 2.5614-0.18333-0.0579-1.0833-0.4079-2-0.77778zm-0.33333-10.529c0-1.9352 0.57712-3.0553 1.3333-2.588 0.73334 0.45323 1.3333 1.9886 1.3333 3.412 0 1.4234-0.6 2.588-1.3333 2.588-0.73333 0-1.3333-1.5354-1.3333-3.412zm20 2.0787c-7.3333-0.66667-7.3333-0.66667-7.3333-5.3333 0-4.6667 0-4.6667 5.8142-4.2926 3.1978 0.20577 6.5944-0.27336 7.548-1.0647 1.2117-1.0056 1.9956-1.0151 2.6036-0.0314 0.47844 0.77412-0.0682 1.7032-1.2146 2.0647-1.1465 0.36149-2.9845 0.93842-4.0845 1.2821s-2 1.8436-2 3.3333c0 3.3263 4.654 3.7354 5.8887 0.51768 0.46238-1.205 1.1395-1.8921 1.5046-1.5269 0.36515 0.36516 0.20103 1.801-0.36472 3.1908-0.88514 2.1744-2.0517 2.4339-8.362 1.8602zm-1.3207-7.3181c-1.9847-2.3914-5.346-1.1121-5.346 2.0347 0 1.5062 1.1415 2.5934 3 2.8574 3.4023 0.48321 4.6492-2.1168 2.346-4.8921zm-18.679-2.0152c0-1.7185 0.67521-2.6638 1.6667-2.3333 0.91666 0.30556 1.6667 1.3556 1.6667 2.3333 0 0.97777-0.75 2.0278-1.6667 2.3333-0.99146 0.33048-1.6667-0.61481-1.6667-2.3333zm62.526-3.2523c-0.36307-0.36307-0.39183-23.33-0.0639-51.037 0.76406-64.558 0.36096-371.33-0.48905-372.18-1.3712-1.3712-525.45-3.8334-526.8-2.475-0.2068 0.2068-0.57452 39.205-0.81714 86.663-0.24262 47.458-0.87107 86.286-1.3966 86.285-0.52548-8.1e-4 -1.5312-1e-3 -2.2349-1e-3 -1.2718 0-0.91769-42.476 0.41125-49.333 0.3553-1.8333 0.696-31.171 0.75711-65.195l0.11111-61.863 266.77 0.74718c146.73 0.41095 267.02 0.99084 267.32 1.2886 1.6311 1.6311 2.0775 18.173 1.9348 71.688-0.0871 32.633-0.6095 65.933-1.161 74-0.55149 8.0667-1.093 58.149-1.2034 111.29-0.15373 74.012 0.17466 96.865 1.4031 97.646 1.2307 0.78228 1.2161 1.0242-0.0628 1.0399-1.1217 0.0137-1.66 2.3091-1.6462 7.0204 0.0146 5.0113 0.38762 6.4318 1.3129 5 1.0036-1.5529 1.2971-1.1628 1.3129 1.7454 0.0118 2.1614-0.54345 3.3969-1.3129 2.9213-0.73334-0.45322-1.3582 0.26137-1.3886 1.588-0.0304 1.3266-0.3982 9.8347-0.81732 18.907-0.6057 13.111-0.38922 16.727 1.0553 17.626 1.4806 0.92156 1.5065 1.6327 0.13936 3.8385-0.92288 1.489-1.195 2.7074-0.60471 2.7074 0.59028 0 1.0348 1.35 0.98777 3-0.0945 3.3179-2.4759 8.1181-3.5129 7.0811zm-61.192-4.8264c0-1.51 0.6-2.3745 1.3333-1.9213 0.73333 0.45322 1.3333 1.6886 1.3333 2.7454s-0.6 1.9213-1.3333 1.9213c-0.73334 0-1.3333-1.2354-1.3333-2.7454zm19.333-0.0873c-9.6151-3.8757-9.8435-4.7146-1.9238-7.0664 8.0254-2.3833 10.59-2.6108 10.59-0.93933 0 0.63886-3 1.5595-6.6667 2.0459-7.0964 0.94136-8.7563 2.7489-3.4551 3.7622 2.3003 0.43973 3.0165 0.10551 2.524-1.1779-0.37817-0.98551-0.0934-1.7918 0.63289-1.7918 0.72626 0 1.6343 1.2 2.0178 2.6667s1.6535 2.6667 2.8222 2.6667c1.1686 0 2.1248 0.6 2.1248 1.3333 0 1.7899-0.88761 1.6363-8.6667-1.4993zm-19.333-7.834c0-1.4667 0.6-2.6667 1.3333-2.6667 0.73333 0 1.3333 1.2 1.3333 2.6667 0 1.4667-0.6 2.6667-1.3333 2.6667-0.73334 0-1.3333-1.2-1.3333-2.6667zm1.3333-8c0-1.4667 0.6-2.6667 1.3333-2.6667s1.3333 1.2 1.3333 2.6667-0.6 2.6667-1.3333 2.6667-1.3333-1.2-1.3333-2.6667zm16.249 0.35295c-7.2031-0.64444-6.7414-2.8555 1.1453-5.4844l5.8944-1.9648-5.6444-2.3972c-8.079-3.4312-7.1835-5.3043 2.3556-4.9276 5.1356 0.20281 8 0.88607 8 1.9083 0 1.0674-1.8683 1.4181-5.6667 1.064l-5.6667-0.52839 4.9932 2.3219c2.7463 1.2771 4.9963 2.6475 5 3.0454 4e-3 0.3979-2.8432 1.5781-6.3265 2.6226l-6.3333 1.8991 6.3333 0.45048c3.4833 0.24777 6.3333 1.0176 6.3333 1.7108 0 0.69316-1.05 1.1555-2.3333 1.0273s-4.9212-0.46447-8.0842-0.74744zm-16.249-8.353c0-1.4667 0.6-2.6667 1.3333-2.6667s1.3333 1.2 1.3333 2.6667-0.6 2.6667-1.3333 2.6667-1.3333-1.2-1.3333-2.6667zm0-7.2546c0-1.0567 0.6-2.2921 1.3333-2.7454 0.73333-0.45322 1.3333 0.41137 1.3333 1.9213 0 1.51-0.6 2.7454-1.3333 2.7454s-1.3333-0.86459-1.3333-1.9213zm64.105-4.1898c0.064-1.5533 0.37992-1.8692 0.80556-0.80556 0.38516 0.9625 0.33779 2.1125-0.10527 2.5556-0.44305 0.44305-0.75818-0.34445-0.70029-1.75zm-62.772-3.2222c0-1.4667 0.6-2.6667 1.3333-2.6667 0.73334 0 1.3333 1.2 1.3333 2.6667 0 1.4667-0.6 2.6667-1.3333 2.6667-0.73333 0-1.3333-1.2-1.3333-2.6667zm14.333 1.7117c-2.3846-0.36123-3.6667-1.3678-3.6667-2.8787 0-3.9559 3.2221-7.123 6.7414-6.6262 2.5708 0.36287 3.2475 1.2339 3.2061 4.1266-0.045 3.1362 0.48547 3.6667 3.6667 3.6667 2.0456 0 3.7192 0.6 3.7192 1.3333 0 1.3057-6.379 1.4823-13.667 0.37832zm4.3333-4.2357c0-2.5326-3.0439-4.6543-4.5363-3.1619-1.9132 1.9132-0.67264 5.6859 1.8696 5.6859 1.7275 0 2.6667-0.88888 2.6667-2.524zm44.211-2.8093c0-1.8333 0.30263-2.5833 0.67252-1.6667 0.36988 0.91667 0.36988 2.4167 0 3.3333-0.36989 0.91666-0.67252 0.16666-0.67252-1.6667zm-36.791-0.94249c-0.72358-1.9003-0.57042-2.0534 0.7464-0.7464 0.91122 0.90445 1.3209 1.9803 0.91038 2.3908-0.41052 0.41052-1.1561-0.32948-1.6568-1.6444zm-26.086-1.7242c0-1.4667 0.6-2.6667 1.3333-2.6667 0.73334 0 1.3333 1.2 1.3333 2.6667 0 1.4667-0.6 2.6667-1.3333 2.6667-0.73333 0-1.3333-1.2-1.3333-2.6667zm0-8c0-1.4667 0.6-2.6667 1.3333-2.6667 0.73334 0 1.3333 1.2 1.3333 2.6667 0 1.4667-0.6 2.6667-1.3333 2.6667-0.73333 0-1.3333-1.2-1.3333-2.6667zm2.3333-4.5227c-2.436-1.8492-3.0544-3.4773-1.3207-3.4773 0.55694 0 1.762 1.2 2.678 2.6667 1.9406 3.1074 1.7882 3.1984-1.3572 0.81061zm-1-8.0652c0-1.1433 0.6-2.0787 1.3333-2.0787 0.73333 0 1.3333 0.56459 1.3333 1.2546 0 0.69006-0.6 1.6255-1.3333 2.0787-0.73334 0.45323-1.3333-0.11136-1.3333-1.2546zm0-8.0787c0-1.9876 0.57413-3.1359 1.3333-2.6667 0.73333 0.45323 1.3333 1.6532 1.3333 2.6667s-0.6 2.2134-1.3333 2.6667c-0.75921 0.46921-1.3333-0.67905-1.3333-2.6667zm0-6.6667c0-1.1 0.6-2 1.3333-2 0.73333 0 1.3333 0.9 1.3333 2s-0.6 2-1.3333 2c-0.73334 0-1.3333-0.9-1.3333-2zm0-8c0-1.1 0.6-2 1.3333-2 0.73333 0 1.3333 0.9 1.3333 2s-0.6 2-1.3333 2c-0.73334 0-1.3333-0.9-1.3333-2zm-0.43139-6.5343c-0.43201-1.1258-0.25314-2.3759 0.39749-2.778 1.7434-1.0775 3.2217 1.9913 1.6948 3.5182-0.85348 0.85349-1.5792 0.59675-2.0923-0.74014zm-0.90194-7.4656c0-0.73334 0.6-1.3333 1.3333-1.3333 0.73334 0 1.3333 0.6 1.3333 1.3333 0 0.73333-0.6 1.3333-1.3333 1.3333-0.73333 0-1.3333-0.6-1.3333-1.3333zm-0.46578-5.9573c-0.4131-1.0765-0.17729-2.3119 0.52401-2.7454 0.70131-0.43343 1.2751 0.44735 1.2751 1.9573 0 3.2194-0.74148 3.5442-1.7991 0.78806zm-1.4236-5.8638c-0.57436-0.92934-0.68421-2.0498-0.24411-2.4899 1.1933-1.1933 2.4944 0.56173 1.8498 2.4952-0.45164 1.3549-0.76569 1.3538-1.6057-5e-3zm-2.555-6.4012c-1.2743-1.2743-1.0961-3.1111 0.30179-3.1111 0.65487 0 1.536 0.9 1.9582 2 0.77989 2.0324-0.6404 2.7307-2.2599 1.1111zm-2.6667-5.3333c-0.48889-0.48889-0.88889-1.7624-0.88889-2.8299 0-1.5742 0.37799-1.6273 2-0.28119 1.1 0.91292 2 2.1864 2 2.8299 0 1.3807-1.8449 1.5474-3.1111 0.28118zm-455.95-4.4444c-2.6085-7.3586-3.3138-10.693-2.3835-11.268 1.729-1.0686 2.7634 0.76248 2.9128 5.1565 0.13684 4.024 0.17507 3.9981 1.8042-1.2222l1.6644-5.3333 2.1175 9.3333 1.7023-4.6667c2.0759-5.6908 2.4252-2.5926 0.49234 4.3675-1.4598 5.2565-3.8769 5.5928-3.9806 0.55385-0.05151-2.502-0.31567-2.3471-1.8403 1.0787-1.2629 2.8379-1.9861 3.4189-2.4891 2zm11.056-5.3333c0-4.2098 0.51078-6.5084 1.3333-6 0.73333 0.45322 1.3333 3.1532 1.3333 6 0 2.8468-0.6 5.5468-1.3333 6-0.82255 0.50837-1.3333-1.7902-1.3333-6zm5.3841 6.3333c-0.26952-1.0532-0.35769-10.955-0.11279-12.667 0.07871-0.55 0.66179-0.1 1.2957 1 0.63394 1.1 0.68469 4.4 0.11279 7.3333-0.57191 2.9333-1.155 4.8833-1.2957 4.3333zm9.2826-6.3333c0-4.5812 0.54222-6.6667 1.7333-6.6667 5.049 0 6.9218 9.5086 2.3543 11.953-3.9178 2.0967-4.0876 1.877-4.0876-5.2864zm5.0886-0.43615c0.299-2.5257-0.1865-3.5638-1.6667-3.5638-1.4443 0-2.0886 1.2682-2.0886 4.1111 0 5.1013 3.1407 4.6436 3.7552-0.54727zm-11.12 3.0023c-0.48305-1.5219-0.52348-3.1219-0.0899-3.5556 0.43362-0.43363 0.86739 0.0616 0.96392 1.1005 0.0965 1.0389 0.61756-0.21112 1.1578-2.7778 0.95942-4.558 0.98637-4.5192 1.1578 1.6667 0.17994 6.4929-1.6216 8.507-3.1897 3.5662zm15.207-0.14012c-0.38106-7.4602 1.5181-10.504 4.8362-7.7498 3.2654 2.7101 2.1105 9.8784-1.6782 10.416-2.338 0.33205-3.0349-0.25641-3.158-2.6667zm5.4913-2.4261c0-2.6667-0.66666-4-2-4-1.3333 0-2 1.3333-2 4 0 2.6667 0.66667 4 2 4 1.3333 0 2-1.3333 2-4zm4.5921 0.73823c-0.47412-2.5273-0.54868-5.3773-0.16568-6.3333 0.38301-0.95603 0.79247 0.0618 0.90993 2.2618l0.21355 4 1.9537-4c1.9537-4 1.9537-4 1.225 0.5-0.40075 2.475-0.72864 5.325-0.72864 6.3333 0 3.7554-2.577 1.6669-3.4079-2.7618zm5.3861 2.8388c-0.56829-1.3784-0.34781-3.0741 0.51144-3.9333 0.8307-0.8307 1.5104-2.5904 1.5104-3.9104s0.55164-2.4 1.2259-2.4c0.73162 0 0.69993 2.0159-0.0786 5-1.9999 7.6656-2.1014 7.8335-3.1691 5.2437zm401.3-0.99909c-1.5635-2.5298 0.71683-3.154 3.039-0.83192 2.0786 2.0786 2.0822 2.254 0.0469 2.254-1.2139 0-2.6025-0.63991-3.0859-1.422zm75.861-12.578c-4e-3 -6.6 0.22141-9.4681 0.50104-6.3736s0.28295 8.4945 7e-3 12c-0.27557 3.5055-0.50436 0.97357-0.50843-5.6264zm-80.473 5.9213c0-1.51-0.53202-2.4166-1.1823-2.0147-0.65024 0.40187-1.9237-0.16272-2.8299-1.2546-2.5435-3.0647 0.84085-2.49 4.0122 0.68135 2.8706 2.8706 3.4863 5.3333 1.3333 5.3333-0.73333 0-1.3333-1.2354-1.3333-2.7454zm-10.055-8.01c-0.48338-0.78213-0.55871-1.7422-0.1674-2.1335 0.95508-0.95508 3.5556 0.72777 3.5556 2.3009 0 1.704-2.3019 1.5902-3.3882-0.1674zm-5.2785-3.9113c-0.45323-0.73334 0.11136-1.3333 1.2546-1.3333s2.0787 0.6 2.0787 1.3333c0 0.73333-0.56459 1.3333-1.2546 1.3333-0.69006 0-1.6255-0.6-2.0787-1.3333zm-4.6667-2.6667c0-0.73333 0.93541-1.3333 2.0787-1.3333s1.7079 0.6 1.2546 1.3333c-0.45322 0.73333-1.3886 1.3333-2.0787 1.3333-0.69005 0-1.2546-0.6-1.2546-1.3333zm-5.3333-3.2915c0-1.1894 0.78213-1.658 1.9923-1.1936 1.0958 0.4205 1.6604 1.3017 1.2546 1.9582-1.1635 1.8826-3.247 1.392-3.247-0.76454zm-6.6667-2.0418c0-0.73334 1.2354-1.3333 2.7454-1.3333 1.5099 0 2.3745 0.6 1.9213 1.3333-0.45323 0.73333-1.6886 1.3333-2.7454 1.3333s-1.9213-0.6-1.9213-1.3333zm96-3.3333c-1.5574-4.7189-4-6.3473-4-2.6667 0 1.1-0.6 2-1.3333 2-0.73334 0-1.3333-3.0399-1.3333-6.7552 0-6.5827 0.0936-6.7445 3.6667-6.3333 3.3028 0.38004 3.6744 0.95109 3.745 5.7552 0.043 2.9333 0.79305 6.6439 1.6667 8.2457 1.91 3.502 1.9845 4.421 0.35846 4.421-0.67646 0-1.923-2.1-2.7701-4.6667zm-0.30556-9.75c0.29028-0.87083-0.42222-1.5833-1.5833-1.5833s-2.1111 0.95-2.1111 2.1111c0 2.3546 2.8704 1.9445 3.6944-0.52778zm-102.36 11.75c0-0.73333 0.86459-1.3333 1.9213-1.3333s2.2921 0.6 2.7454 1.3333c0.45322 0.73334-0.41136 1.3333-1.9213 1.3333s-2.7454-0.6-2.7454-1.3333zm-5.3333-1.412c0-0.77661 0.6-1.0412 1.3333-0.58798 0.73334 0.45323 1.3333 1.0886 1.3333 1.412 0 0.32338-0.6 0.58797-1.3333 0.58797-0.73333 0-1.3333-0.63541-1.3333-1.412zm44.25-4.2546c0.27298-1.9632-0.27407-3-1.5828-3-1.1651 0-1.8365 0.97402-1.6082 2.3333 0.21548 1.2833-0.23452 2.3333-1 2.3333s-1.3918-2.63-1.3918-5.8445c0-4.9338 0.46743-5.9698 3-6.6485 4.8813-1.3082 5-1.154 5 6.493 0 4.2891-0.58829 7.3333-1.4172 7.3333-0.77943 0-1.2294-1.35-1-3zm0.82999-7.3333c-0.54125-2.8104-2.9076-2.6332-3.5106 0.26291-0.25152 1.208 0.48346 2.0704 1.7644 2.0704 1.3733 0 2.0272-0.87386 1.7462-2.3333zm13.587 3c0-8.2724 1.7455-9.4222 4.5541-3 1.8951 4.3333 1.8951 4.3333 2.0038 0.66667 0.0598-2.0167 0.65878-3.6667 1.331-3.6667 1.4015 0 1.1671 11.388-0.26391 12.819-0.52048 0.52049-1.6077-0.95096-2.4161-3.2699-1.8622-5.342-3.5984-5.4748-2.8267-0.21621 0.35241 2.4011-6e-3 4-0.89759 4-0.9107 0-1.4847-2.835-1.4847-7.3333zm15.881 6.1484c-0.0654-0.44831-0.13949-3.0651-0.16474-5.8151-0.0296-3.2244-0.66974-5-1.8025-5-0.96611 0-2.0488-0.47279-2.4059-1.0506s2.1506-0.72785 5.5728-0.33333c4.627 0.53341 6.3417 1.3425 6.6887 3.1561 0.89192 4.6617-0.97799 8.5598-4.4219 9.2182-1.8412 0.35196-3.4011 0.27314-3.4664-0.17517zm5.2317-6.9947c-0.24542-1.7346-1.0462-3.0355-1.7796-2.8909-1.7099 0.33716-2.4634 3.9396-1.4024 6.7046 1.2048 3.1398 3.7365 0.10552 3.1819-3.8137zm5.0298 6.0705c-2.3768-6.1939 0.62417-12.968 4.6443-10.483 2.1479 1.3275 1.4204 10.894-0.89604 11.783-2.8468 1.0924-2.8278 1.099-3.7483-1.2997zm4.524-4.5576c0-2.2-0.61883-4-1.3752-4-1.8412 0-3.0963 3.5148-2.1426 6 1.3189 3.437 3.5178 2.1869 3.5178-2zm3.8921 3.6289c-1.6788-3.6846 0.41808-10.296 3.2656-10.296 3.4716 0 4.8948 8.7475 1.909 11.733-2.3353 2.3353-3.6178 1.979-5.1746-1.4378zm4.1079-3.6289c0-2.2-0.6-4-1.3333-4s-1.3333 1.8-1.3333 4 0.6 4 1.3333 4 1.3333-1.8 1.3333-4zm-87.293 2.7507c-1.0002-3.1114-1.1222-3.143-2.8755-0.74516-1.6963 2.3199-1.831 2.1981-1.831-1.6555 0-2.2878-0.94285-5.1025-2.0952-6.2548-1.9048-1.9048-1.8442-2.0952 0.66666-2.0952 1.873 0 2.7619 0.85824 2.7619 2.6667 0 3.4584 2.2398 3.4454 3.3395-0.0194 0.46889-1.4773 1.4484-2.3178 2.1767-1.8676 0.81061 0.50098 0.55136 1.6724-0.6684 3.0202-1.4481 1.6001-1.6282 2.8529-0.65916 4.5845 0.73339 1.3105 1.085 3.1101 0.78128 3.9992s-1.0222 0.15427-1.5967-1.6328zm5.0263-4.0841c0-4.0333 0.24995-5.6833 0.55545-3.6667s0.3055 5.3167 0 7.3333c-0.3055 2.0167-0.55545 0.36667-0.55545-3.6667zm6.35 6c-0.20098-0.73334-0.25663-2.9833-0.12365-5 0.13297-2.0167-0.40345-3.6667-1.192-3.6667s-1.4338-0.9-1.4338-2c0-1.3333 1.3333-2 4-2 4.1669 0 5.4006 1.8439 2.0849 3.1162-1.0533 0.40418-2.1524 3.0184-2.4425 5.8093-0.2901 2.7909-0.69189 4.4744-0.89287 3.7411zm7.5289-0.16598c-1.6467-1.6467-1.0202-9.4452 0.88587-11.027 2.2415-1.8603 6.169-0.55561 6.169 2.0493 0 1.4464-0.59899 1.5837-2.4914 0.57092-2.8578-1.5294-4.1753-0.67227-4.1753 2.7164 0 3.282 2.3754 4.4248 4.8789 2.347 1.7958-1.4904 2.0238-1.3638 1.5946 0.88521-0.49923 2.6163-5.0672 4.2528-6.8617 2.4582zm20.388-5.834c0-6.5586 0.0667-6.6667 4.1111-6.6667 2.7108 0 3.9126 0.56769 3.5284 1.6667-0.32053 0.91666-1.5705 1.4904-2.7778 1.2749-2.5633-0.45752-2.9695 1.8082-0.52834 2.9473 1.3333 0.62222 1.3333 0.93333 0 1.5556-2.2769 1.0625-2.1062 3.2222 0.25464 3.2222 1.0567 0 2.2921 0.6 2.7454 1.3333 0.48076 0.7779-0.87505 1.3333-3.2546 1.3333-4.0055 0-4.0787-0.11956-4.0787-6.6667zm75.16-14.667c0-7.7 0.22036-10.85 0.4897-7s0.26934 10.15 0 14-0.4897 0.7-0.4897-7zm-477.04-4.6667c-0.99466-3.9631-4.7858-4.4912-4.7858-0.66667 0 1.4667-0.6 2.6667-1.3333 2.6667-0.73333 0-1.3333-3.338-1.3333-7.4178 0-7.4178 0-7.4178 4.3333-7 4.1778 0.40281 4.3375 0.63711 4.4492 6.5265 0.0637 3.3598 0.54911 6.8098 1.0787 7.6667 0.52958 0.85687 0.3925 1.558-0.30461 1.558-0.69712 0-1.644-1.5-2.1041-3.3333zm-0.7858-5.2243c0-0.30669 0.33393-1.4278 0.74207-2.4914 0.46366-1.2083-0.28673-2.2029-2-2.6509-2.2062-0.57693-2.7421-0.09-2.7421 2.4914 0 1.9631 0.7763 3.2085 2 3.2085 1.1 0 2-0.25093 2-0.55762zm-46.274 0.22429c0.24357-6.2222 0.61956-7.0489 3.384-7.4405 3.9088-0.55362 8.2234 3.2338 8.2234 7.2186 0 4.1498-3.4184 7.2219-8.0359 7.2219-3.7849 0-3.8411-0.1103-3.5714-7zm9.6277 1.6027c1.0418-3.2826-1.3971-6.6027-4.8502-6.6027-1.9721 0-2.5034 0.99033-2.5034 4.6667 0 4.0544 0.42553 4.6667 3.2435 4.6667 2.0978 0 3.5496-0.96453 4.1102-2.7306zm6.2464 3.7973c-1.725-1.725-2.0947-6.226-0.79068-9.6243 0.95382-2.4856 5.9714-2.795 8.2573-0.50905 3.639 3.639 1.0635 11.733-3.7333 11.733-1.1733 0-2.8533-0.72-3.7333-1.6zm6.1333-1.3333c3.7979-3.7979-0.35242-11.093-4.4-7.7333-1.1 0.91292-2 2.6664-2 3.8966 0 2.1797 2.3963 5.4367 4 5.4367 0.44 0 1.52-0.72 2.4-1.6zm5.4168-0.26956c-3.0179-6.6236 2.6551-14.165 7.5806-10.077 2.3412 1.9431 2.5574 9.4587 0.33594 11.68-2.5969 2.5969-6.3491 1.8371-7.9165-1.6029zm7.443-2.5796c0.85968-2.4324 0.78228-4.0421-0.24371-5.0681-2.4664-2.4664-5.6828-0.24776-5.6828 3.9198 0 6.6909 3.7133 7.4103 5.9265 1.1482zm488.85-8.3286c0.064-1.5533 0.37992-1.8692 0.80556-0.80556 0.38516 0.9625 0.33779 2.1125-0.10526 2.5556-0.44306 0.44305-0.75819-0.34445-0.7003-1.75zm-495.06-6.8889c-0.6861-3.3173 0.38282-8.3333 1.7758-8.3333 1.6734 0 1.4632 3.6663-0.27161 4.7385-1.0438 0.6451-1.0438 1.3016 0 2.3454 1.7745 1.7745 1.8825 3.5828 0.21394 3.5828-0.67956 0-1.4527-1.05-1.7182-2.3333zm495.06-1.1111c0.064-1.5533 0.37992-1.8692 0.80556-0.80556 0.38516 0.9625 0.33779 2.1125-0.10526 2.5556-0.44306 0.44305-0.75819-0.34445-0.7003-1.75zm0.0729-42c0.098-19.372 0.58473-32.29 1.0817-28.705 0.93018 6.7093 0.3224 62.345-0.69216 63.36-0.31221 0.31221-0.48749-15.282-0.38951-34.655zm-494.84 30.778c0-0.73333 0.6-1.3333 1.3333-1.3333 0.73333 0 1.3333 0.6 1.3333 1.3333 0 0.73334-0.6 1.3333-1.3333 1.3333-0.73334 0-1.3333-0.6-1.3333-1.3333zm-18.665-7.588c-0.0021-4.9714 1.5677-6.3098 6.074-5.1788 2.3595 0.59219 3.2576 1.7296 3.2576 4.1255 0 2.7866 0.63041 3.3079 4 3.3079 2.2 0 4 0.61771 4 1.3727 0 0.83876-3.3703 1.2277-8.6649 1-8.6649-0.37268-8.6649-0.37268-8.6667-4.6273zm7.9982 1.0304c0-2.7353-1.729-5.4424-3.476-5.4424-1.0923 0-1.8573 1.373-1.8573 3.3333 0 2.4444 0.71111 3.3333 2.6667 3.3333 1.4667 0 2.6667-0.55093 2.6667-1.2243zm11.639 1.7521c-0.53473-0.53472-0.95398-2.2222-0.93168-3.75 0.0374-2.5648 0.1469-2.595 1.4277-0.39421 1.4915 2.5628 1.11 5.7502-0.49602 4.1442zm-0.34694-13.928c-1.267-2.05 0.46846-3.3726 2.1798-1.6613 0.95757 0.95758 0.98058 1.7034 0.0699 2.2662-0.74656 0.46139-1.7589 0.1892-2.2497-0.60489zm-15.887-3.3138c-3.3211-2.5118-1.9265-3.7842 6.9283-6.3215 5.5091-1.5786 7-1.644 7-0.3073 0 0.93416-1.2 2.0123-2.6667 2.3958-1.5955 0.41723-2.6667 1.8187-2.6667 3.4888 0 3.3602-4.6084 3.7592-8.595 0.7441zm6.58-3.0787c-0.29516-0.29516-1.5957-0.13026-2.8901 0.36645-1.9777 0.75891-2.0457 1.0933-0.42603 2.0943 1.7757 1.0975 4.7025-1.0744 3.3162-2.4608zm9.5589 0.39154c0.80928-2.109 3.1228-2.6582 3.1228-0.74142 0 0.65488-0.86944 1.5243-1.9321 1.9321-1.2914 0.49554-1.6862 0.10068-1.1907-1.1907zm1.3832-7.3416c-0.58607-2.2412-0.37331-2.4574 1.1632-1.1823 1.0342 0.85833 1.5516 2.0926 1.1497 2.7429-1.0878 1.7602-1.5209 1.468-2.3129-1.5606zm-19.101-5.5905c0.44218-1.65 0.81216-4.35 0.82218-6 0.01001-1.65 0.61821-3 1.3515-3 0.73333 0 1.3333 1.13 1.3333 2.5112 0 2.5458 3.3569 4.1026 8.9213 4.1373 1.6067 0.01 3.2984 0.62835 3.7593 1.3741 0.55321 0.89512-1.6855 1.0593-6.588 0.4831-6.3447-0.7457-7.426-0.55485-7.426 1.3108 0 1.201-0.66998 2.1836-1.4888 2.1836-0.89331 0-1.1673-1.2-0.68487-3zm19.507 0.44238c0-0.67335-0.41643-2.3234-0.92539-3.6667-0.86678-2.2877-0.78232-2.3006 1.3333-0.20429 2.5067 2.4838 2.981 5.0952 0.92539 5.0952-0.73333 0-1.3333-0.55093-1.3333-1.2243zm1.3333-6.6667c0-0.67336-0.41642-2.3234-0.92539-3.6667-0.86678-2.2877-0.78232-2.3006 1.3333-0.20429 2.5067 2.4838 2.981 5.0952 0.9254 5.0952-0.73334 0-1.3333-0.55093-1.3333-1.2243zm1.3333-5.9213c0-1.0833-0.41643-3.0687-0.9254-4.412-0.86677-2.2877-0.78232-2.3006 1.3333-0.20429 2.5576 2.5342 2.8818 4.5528 0.92539 5.7619-0.73333 0.45323-1.3333-0.0623-1.3333-1.1456zm-15-3.159c-2.75-0.28766-5-1.1618-5-1.9425 0-0.87284 1.574-1.1047 4.087-0.60211 3.8294 0.76589 4.0605 0.58731 3.6667-2.8333-0.30045-2.6093-1.2761-3.7723-3.4204-4.0768-1.65-0.23434-3-0.98434-3-1.6667 0-1.5817 1.0525-1.5586 9.2677 0.20322 7.1433 1.532 9.2304 3.896 3.067 3.4739-2.8588-0.19579-3.7576 0.39584-4.0849 2.6889-0.33294 2.333 0.49251 3.2027 3.9986 4.2131 4.4182 1.2732 4.4182 1.2732 0.41819 1.1693-2.2-0.0571-6.25-0.33924-9-0.6269zm15.777-4.1831c-0.57436-0.92934-0.68421-2.0498-0.24411-2.4899 1.1933-1.1933 2.4944 0.56173 1.8498 2.4952-0.45163 1.3549-0.76569 1.3538-1.6057-5e-3zm0.85041-12.282c0.16201-3.7235 0.73585-7.0427 1.2752-7.376s0.66595-1.4262 0.28132-2.4285c-0.38463-1.0023-0.0584-2.2185 0.7249-2.7026 0.78333-0.48412 1.4242-2.3094 1.4242-4.0562 0-2.8071 2.1322-5.7251 3.264-4.4668 1.2021 1.3364-1.1444 9.1335-2.7487 9.1335-1.0168 0-1.8487 0.6-1.8487 1.3333s0.6 1.3333 1.3333 1.3333 1.3333 0.88117 1.3333 1.9582c0 1.1928-0.78172 1.6582-2 1.1907-1.1-0.42211-2-0.10328-2 0.70851s0.6 1.476 1.3333 1.476c0.73333 0 1.3333 0.9 1.3333 2s-0.61143 2-1.3587 2c-0.78352 0-1.0046 1.4111-0.52212 3.3333 0.51552 2.054 0.26936 3.3333-0.64138 3.3333-0.92638 0-1.368-2.5266-1.1834-6.77zm-16.436-9.8004c-1.1015-1.1226 1.6501-12.763 3.017-12.763 0.60114 0 0.95005 1.3281 0.77537 2.9513-0.27939 2.5961 0.54203 3.0925 6.8247 4.1244 3.971 0.65219 6.6346 1.6808 5.9988 2.3165-0.63575 0.63575-3.5111 0.59466-6.4756-0.0926-7.6144-1.7651-8.4299-1.6283-8.9061 1.4936-0.23433 1.5363-0.7897 2.4226-1.2342 1.9697zm22.808-16.096c0-1.1 0.6-2 1.3333-2s1.3333 0.9 1.3333 2-0.6 2-1.3333 2-1.3333-0.9-1.3333-2zm-14.667-1.053c-7.6024-3.8325-2.7832-12.683 6.008-11.033 5.7627 1.0811 8.4587 5.4773 6.0822 9.9178-1.7405 3.2522-6.9065 3.7288-12.09 1.1156zm9.7798-2.5019c2.1224-3.3705-1.2635-6.6746-6.3329-6.1798-5.2718 0.51444-6.4326 5.1946-1.8426 7.4291 3.9318 1.9142 6.4232 1.5335 8.1755-1.2493zm6.2202-3.0331c0-2.1521 1.8884-3.7458 3.0555-2.5788 1.0405 1.0405-0.39313 4.5001-1.8648 4.5001-0.65487 0-1.1907-0.86459-1.1907-1.9213zm2.1106-5.8997c-0.57436-0.92934-0.68421-2.0498-0.24411-2.4899 1.1933-1.1933 2.4944 0.56174 1.8498 2.4953-0.45164 1.3549-0.76569 1.3538-1.6057-5e-3zm0.75607-6.779c0.29333-0.88 0.96833-1.555 1.5-1.5 1.5943 0.16493 1.2855 1.9937-0.43334 2.5667-0.88 0.29333-1.36-0.18667-1.0667-1.0667zm1.9816-6.0743c-0.46441-1.2102 4e-3 -1.9923 1.1936-1.9923 2.1565 0 2.6471 2.0835 0.76453 3.247-0.65649 0.40574-1.5377-0.15885-1.9582-1.2546zm-19.471-3.417c-0.0244-0.4169 0.89646-3.9261 2.0464-7.7982 2.0678-6.963 3.7917-8.0284 3.8692-2.3912 0.0332 2.4108 1.1274 3.1102 6.3734 4.0732 3.4833 0.63944 6.3333 1.7619 6.3333 2.4944s-0.85739 1.0027-1.9053 0.6006c-1.0479-0.40212-4.0477-1.133-6.6662-1.6243-3.9942-0.74933-5.1832-0.38619-7.3837 2.2552-1.4425 1.7316-2.6427 2.8072-2.6671 2.3903zm20.48-3.351c0.44512-1.16 0.80932-2.36 0.80932-2.6667 0-0.30668 0.6-0.55761 1.3333-0.55761s1.3333 1.2 1.3333 2.6667c0 1.5604-0.88889 2.6667-2.1426 2.6667-1.406 0-1.8644-0.72507-1.3333-2.109zm2.1426-6.4789c0-2.1521 1.8884-3.7458 3.0555-2.5788 1.0405 1.0405-0.39313 4.5001-1.8648 4.5001-0.65487 0-1.1907-0.86458-1.1907-1.9213zm2-6.0787c-0.53221-0.86113-0.36765-2.1657 0.36569-2.899 0.88888-0.88889 1.6559-0.81144 2.301 0.23235 0.5322 0.86113 0.36764 2.1657-0.36569 2.899-0.88889 0.88889-1.6559 0.81144-2.301-0.23235zm-12.191-1.8408c-5.8557-1.5821-7.8267-4.4397-2.5888-3.7533 2.2782 0.29854 3.3058-0.39127 3.8856-2.6084 0.93484-3.5748 0.72067-3.8758-2.9553-4.1527-3.1666-0.23853-3.9168-2.3114-0.83651-2.3114 1.0895 0 4.6895 0.72444 8 1.6099 6.5648 1.7558 8.4429 4.4677 2.1346 3.0822-3.1638-0.69489-4.0456-0.34569-4.7527 1.8821-1.1079 3.4907 0.0985 5.4258 3.3827 5.4258 1.4234 0 2.588 0.6 2.588 1.3333 0 1.5753-1.4579 1.4918-8.8576-0.50747zm14.426-5.7154c0.2371-1.2226 1.1339-2.4568 1.9928-2.7428 0.99347-0.33076 1.3008 0.47808 0.84449 2.2228-0.85223 3.2589-3.4613 3.737-2.8373 0.51996zm2.4311-8.5225c0-1.51 0.6-2.3745 1.3333-1.9213 0.73333 0.45322 1.3333 1.6886 1.3333 2.7454s-0.6 1.9213-1.3333 1.9213-1.3333-1.2354-1.3333-2.7454zm-6.6778-2.6231c-1.0939-0.69157-3.4888-1.2758-5.3222-1.2982-5.4237-0.0664-6.6731-1.5938-5.7843-7.0711 0.6039-3.7214 1.2141-4.622 2.4415-3.6034 0.90001 0.74694 1.3504 2.8543 1.0008 4.6829-0.46553 2.4352-0.0589 3.3249 1.5198 3.3249 1.2447 0 2.1554-1.0935 2.1554-2.588 0-1.4234 0.63129-2.9781 1.4029-3.455 0.88438-0.54657 1.254 0.51562 1 2.8739-0.59554 5.53 3.7174 6.0256 4.9167 0.56498 0.49357-2.2472 1.4044-3.7725 2.024-3.3896 1.1894 0.73508-0.57051 8.4206-2.3315 10.182-0.56892 0.56893-1.9294 0.46858-3.0233-0.22298zm8.7118-2.5765c-0.55092-0.8914-0.34395-2.2784 0.45993-3.0823 2.0482-2.0482 3.3458-0.30749 1.8128 2.4318-0.93287 1.6669-1.5376 1.84-2.2727 0.6505zm1.966-9.3884c0-1.5086 0.88889-2.6667 2.0469-2.6667 1.6337 0 1.7588 0.53827 0.61975 2.6667-0.78493 1.4667-1.706 2.6667-2.0469 2.6667-0.34086 0-0.61975-1.2-0.61975-2.6667zm1.5833-6.75c0.32083-0.9625 1.3708-2.0125 2.3333-2.3333 1-0.33333 1.5 0.16667 1.1667 1.1667-0.32083 0.9625-1.3708 2.0125-2.3333 2.3333-1 0.33333-1.5-0.16667-1.1667-1.1667zm2.4167-7.9167c0-1.4667 0.84382-2.6667 1.8752-2.6667 1.2187 0 1.631 0.93352 1.1778 2.6667-0.38355 1.4667-1.2274 2.6667-1.8752 2.6667-0.6478 0-1.1778-1.2-1.1778-2.6667zm2.6667-8c0-1.4667 0.6-2.6667 1.3333-2.6667 0.73333 0 1.3333 1.2 1.3333 2.6667 0 1.4667-0.6 2.6667-1.3333 2.6667-0.73334 0-1.3333-1.2-1.3333-2.6667zm4-10.588c0-0.69005 0.6-1.6255 1.3333-2.0787 0.73333-0.45322 1.3333 0.11136 1.3333 1.2546s-0.6 2.0787-1.3333 2.0787c-0.73334 0-1.3333-0.56459-1.3333-1.2546zm-12.333-3.6881c-7.8752-2.0661-10.978-5.3861-3.6667-3.9239 2.2 0.44 4 0.26407 4-0.39095 0-0.65502 0.35456-2.1149 0.7879-3.2442 0.54734-1.4264-0.26682-2.3179-2.6667-2.9203-1.9-0.47687-3.4546-1.4424-3.4546-2.1457 0-0.70325 1.05-0.97646 2.3333-0.60714 1.2833 0.36933 4.8833 1.4047 8 2.3009 6.334 1.8213 7.798 4.2336 1.8471 3.0434-3.2967-0.65935-3.9078-0.30257-4.4639 2.6064-0.515 2.694-0.0161 3.5279 2.4863 4.156 1.7218 0.43214 3.1305 1.3743 3.1305 2.0936 0 0.71936-0.15 1.2484-0.33333 1.1756-0.18333-0.07278-3.7833-1.0375-8-2.1437zm13.667-1.6453c0-0.69005 0.6-1.6255 1.3333-2.0787 0.73333-0.45322 1.3333 0.11136 1.3333 1.2546 0 1.1433-0.6 2.0787-1.3333 2.0787s-1.3333-0.56459-1.3333-1.2546zm1.3333-6.7454c0-0.73333 0.6-1.3333 1.3333-1.3333 0.73334 0 1.3333 0.6 1.3333 1.3333 0 0.73333-0.6 1.3333-1.3333 1.3333-0.73333 0-1.3333-0.6-1.3333-1.3333zm2.1287-5.125c-0.4614-0.74656-0.1892-1.7589 0.60489-2.2497 2.05-1.267 3.3726 0.46847 1.6613 2.1798-0.95757 0.95757-1.7034 0.98058-2.2662 0.06991zm-15.181-5.3838c-2.4122-0.45346-4.2122-1.4245-4-2.1578 0.21219-0.73333 0.9858-1.1191 1.7191-0.85733 4.4264 1.5802 11.098 1.6507 12.039 0.1271 1.5275-2.4716-4.179-6.6031-9.1203-6.6031-2.9323 0-3.7069-0.41209-2.6886-1.4304 1.9924-1.9924 12.034 0.8269 13.567 3.809 1.3092 2.5476 0.57028 5.7756-1.6638 7.2676-1.628 1.0873-3.3915 1.0595-9.8525-0.1551zm16.443-1.399c-0.4219-0.68266-0.15731-1.6181 0.58798-2.0787 0.7453-0.46062 1.3551 0.09792 1.3551 1.2412 0 2.342-0.80007 2.6869-1.9431 0.83749zm136.46-5.134c-0.0846-0.52698-0.2932-1.5582-0.46358-2.2915-0.17038-0.73333-0.40117-3.2833-0.51287-5.6667-0.29699-6.337-2.5629-5.2898-3.6061 1.6667-0.56886 3.7934-1.5796 6-2.7484 6-1.0167 0-1.8486-0.15191-1.8486-0.33758s-1.1576-4.3857-2.5726-9.3333c-2.0402-7.1344-2.2024-8.9958-0.78386-8.9958 1.0474 0 2.1616 2.2076 2.6886 5.3263 1.2052 7.1332 2.9964 7.8798 4.1048 1.7107 1.4566-8.1068 2.7945-9.6886 4.4693-5.2836 0.7849 2.0644 1.4271 4.879 1.4271 6.2546 0 1.3756 0.6 2.872 1.3333 3.3252 0.81263 0.50223 1.3333-1.4942 1.3333-5.112 0-4.0465 0.63663-6.1803 2-6.7035 2.3399-0.89792 2.4234 0.36174 0.55983 8.4494-0.75624 3.282-2.0916 6.4228-2.9674 6.9796-1.2121 0.77059-1.1944 1.0173 0.0742 1.0328 0.91671 0.011229 1.6667 0.55622 1.6667 1.2111 0 1.4458-3.9366 3.1208-4.1538 1.7675zm-135.02-1.3694c-0.53286-0.86218-0.41939-2.5494 0.25215-3.7494 1.5723-2.8096 2.881-0.64145 1.6532 2.7388-0.63661 1.7526-1.2467 2.0762-1.9053 1.0106zm106.21-0.58872c-1.9122-2.4713-2.9626-5.9632-2.064-6.8617 0.43401-0.43402 1.4604 0.55732 2.2808 2.203 0.9215 1.8484 2.7084 2.9921 4.6746 2.9921 4.9274 0 4.6749-2.714-0.53877-5.7902-4.839-2.8551-5.32-3.7688-3.9135-7.4341 1.6501-4.3002 9.8967-1.6506 9.8277 3.1576-0.0211 1.4723-0.73538 1.1488-2.4837-1.1251-1.3701-1.7819-3.1238-2.7778-3.9704-2.2546-2.7867 1.7223-1.5588 4.9036 2.4292 6.2939 4.4707 1.5585 6.3937 5.6673 4.0014 8.5498-1.97 2.3738-8.4825 2.545-10.243 0.26935zm36.963 1.3101c0-0.31835 0.57066-2.3183 1.2681-4.4444s1.8937-6.3156 2.6582-9.3101c2.5582-10.02 6.4144-6.0821 8.9224 9.1111 0.54642 3.3101 0.31715 5-0.67836 5-0.82706 0-1.5037-1.5-1.5037-3.3333 0-2.6412-0.67285-3.3333-3.2406-3.3333-2.3063 0-3.3634 0.83482-3.6667 2.8956-0.34552 2.3482-3.7594 5.4488-3.7594 3.4145zm9.3129-9.9767c-0.0112-1.2833-0.52773-3.1336-1.1478-4.1118-0.8993-1.4187-1.2998-1.3292-1.9796 0.44238-1.4122 3.6801-0.9681 6.0027 1.1478 6.0027 1.1 0 1.9908-1.05 1.9796-2.3333zm8.7393 0.66622c0.0612-11.33 2.322-12.939 5.7749-4.1102 3.1261 7.993 3.6505 8.0383 6.1443 0.53038 1.2336-3.7142 2.7198-6.753 3.3025-6.753 1.3994 0 2.7262 6.8948 2.7262 14.167 0 8.757-2.6454 7.027-2.8034-1.8333l-0.13679-7.6667-2.3405 7.2702c-1.2873 3.9986-2.9873 7.4858-3.7777 7.7493-1.2993 0.43309-4.2491-7.3601-4.2674-11.274-4e-3 -0.87339-0.65151-1.986-1.4387-2.4726-0.97993-0.60563-1.2408 1.4719-0.82733 6.588 0.40578 5.0206 0.10979 7.4724-0.90205 7.4721-0.98538-2.89e-4 -1.488-3.342-1.4538-9.6667zm23.281 0.33378v-9.3333h6.7085c7.5235 0 9.2201 1.8598 7.1364 7.8227-0.9846 2.8176-2.2091 3.5923-6.2025 3.9245-5.075 0.42208-6.3166 2.3786-3.3757 5.3195 1.2444 1.2444 0.94815 1.6-1.3333 1.6-2.7429 0-2.9333-0.60606-2.9333-9.3333zm10.667-2c2.2349-2.6928-0.52583-6.1065-4.4537-5.5071-1.9886 0.30348-2.9246 1.4966-3.1147 3.9705-0.22194 2.8875 0.29536 3.5366 2.8184 3.5366 1.6996 0 3.8371-0.9 4.75-2zm-213.33 0.19896c0-0.99057 0.71714-3.8406 1.5937-6.3333 1.5461-4.3971 1.6173-4.4338 2.386-1.2307 0.62564 2.6071 1.9788 3.5362 6.4332 4.4171 3.1025 0.61355 5.3208 1.6336 4.9294 2.2669-0.39591 0.64059-2.622 0.60342-5.0181-0.08379-5.9887-1.7176-7.6575-1.5509-7.6575 0.7649 0 1.1-0.6 2-1.3333 2s-1.3333-0.81047-1.3333-1.801zm20.211-0.86563c0-1.8333 0.30263-2.5833 0.67252-1.6667 0.36988 0.91667 0.36988 2.4167 0 3.3333-0.36989 0.91667-0.67252 0.16667-0.67252-1.6667zm-0.21052-7.3333c0-1.1 0.6-2 1.3333-2s1.3333 0.9 1.3333 2-0.6 2-1.3333 2-1.3333-0.9-1.3333-2zm1.3333-8c0-1.1 0.6-2 1.3333-2 0.73334 0 1.3333 0.9 1.3333 2s-0.6 2-1.3333 2c-0.73333 0-1.3333-0.9-1.3333-2zm1.3333-8.0787c0-1.1433 0.6-1.7079 1.3333-1.2546 0.73333 0.45322 1.3333 1.3886 1.3333 2.0787 0 0.69005-0.6 1.2546-1.3333 1.2546-0.73334 0-1.3333-0.93541-1.3333-2.0787zm0-8.588c0-0.73333 0.6-1.3333 1.3333-1.3333 0.73333 0 1.3333 0.6 1.3333 1.3333 0 0.73333-0.6 1.3333-1.3333 1.3333-0.73334 0-1.3333-0.6-1.3333-1.3333z"/>
</svg>
